<svg width="165" height="165" viewBox="0 0 165 165" fill="none" xmlns="http://www.w3.org/2000/svg">
<path d="M76.5181 162.574C29.6601 130.221 0 92.5654 0 54.281C0 22.4673 20.1888 0 47.1073 0C62.4773 0 75.1057 7.99837 82.5 20.0408C90.0604 7.9085 102.523 0 117.893 0C144.811 0 165 22.4673 165 54.281C165 66.695 161.881 79.0428 156.072 91.1651C152.252 96.9047 143.919 94.7299 142.938 87.7377L142.707 86.089C149.18 74.538 151.624 65.7708 151.624 54.281C151.624 30.3758 137.334 14.469 118.059 14.469C102.523 14.469 93.8822 25.1634 88.1495 33.9706C85.7402 37.4755 84.494 38.5539 82.5 38.5539C80.506 38.5539 79.0937 37.5654 76.8505 33.9706C71.5332 24.9837 62.5604 14.469 46.9411 14.469C27.6662 14.469 13.3761 30.3758 13.3761 54.281C13.3761 87.7124 46.0272 123.75 80.8384 148.734C81.5861 149.363 82.1677 149.812 82.5 149.812C82.8211 149.812 83.375 149.392 84.1616 148.797L84.2447 148.734C100.123 137.311 115.567 123.577 127.655 108.838H145.621C132.321 127.735 112.726 145.862 88.565 162.574C86.7372 163.742 84.2447 165 82.5 165C80.7553 165 78.2628 163.742 76.5181 162.574Z" fill="url(#paint0_angular_216_3830)"/>
<defs>
<radialGradient id="paint0_angular_216_3830" cx="0" cy="0" r="1" gradientUnits="userSpaceOnUse" gradientTransform="translate(82.5 82.5) rotate(8.44487) scale(96.8566 110.379)">
<stop offset="0.00836279" stop-color="#E74A2F"/>
<stop offset="0.0344265" stop-color="#E74A2F" stop-opacity="0"/>
<stop offset="0.0459663" stop-color="#E74A2F" stop-opacity="0"/>
<stop offset="0.355366" stop-color="#E74A2F"/>
</radialGradient>
</defs>
</svg>
