<svg width="35" height="35" viewBox="0 0 35 35" fill="none" xmlns="http://www.w3.org/2000/svg">
<circle cx="17.5" cy="17.5" r="17.5" fill="#FCCEB4"/>
<path d="M26.0614 14.9765L18.1092 8.02804C18.0134 7.94539 17.8993 7.87979 17.7736 7.83503C17.6479 7.79026 17.5131 7.76721 17.3769 7.76721C17.2408 7.76721 17.106 7.79026 16.9803 7.83503C16.8546 7.87979 16.7405 7.94539 16.6446 8.02804L8.69245 14.9853C8.50003 15.1512 8.34806 15.348 8.24537 15.5645C8.14267 15.781 8.0913 16.0127 8.09424 16.2463V23.6357C8.09344 24.0871 8.29513 24.5215 8.65777 24.8496C9.02042 25.1777 9.51641 25.3744 10.0436 25.3992H24.7103C25.2375 25.3744 25.7335 25.1777 26.0961 24.8496C26.4588 24.5215 26.6605 24.0871 26.6597 23.6357V16.2463C26.6605 15.7727 26.446 15.3174 26.0614 14.9765ZM15.3141 23.6357V18.3449H19.4398V23.6357H15.3141ZM24.5968 23.6357H21.5026V17.4632C21.5026 17.2293 21.3939 17.005 21.2005 16.8396C21.0071 16.6743 20.7447 16.5814 20.4712 16.5814H14.2827C14.0092 16.5814 13.7468 16.6743 13.5534 16.8396C13.36 17.005 13.2513 17.2293 13.2513 17.4632V23.6357H10.1571V16.211L17.3769 9.90625L24.5968 16.2463V23.6357Z" fill="#F76B1C"/>
</svg>
