<svg width="21" height="25" viewBox="0 0 21 25" fill="none" xmlns="http://www.w3.org/2000/svg">
<path d="M16.5417 7.66689H15.3333V5.38314C15.3333 4.10126 14.8241 2.87188 13.9177 1.96546C13.0113 1.05903 11.7819 0.549805 10.5 0.549805C9.21813 0.549805 7.98875 1.05903 7.08233 1.96546C6.1759 2.87188 5.66668 4.10126 5.66668 5.38314V7.66689H4.45834C3.49693 7.66689 2.5749 8.04881 1.89508 8.72863C1.21526 9.40844 0.833344 10.3305 0.833344 11.2919V20.9586C0.833344 21.92 1.21526 22.842 1.89508 23.5218C2.5749 24.2016 3.49693 24.5836 4.45834 24.5836H16.5417C17.5031 24.5836 18.4251 24.2016 19.1049 23.5218C19.7848 22.842 20.1667 21.92 20.1667 20.9586V11.2919C20.1667 10.3305 19.7848 9.40844 19.1049 8.72863C18.4251 8.04881 17.5031 7.66689 16.5417 7.66689ZM8.08334 5.38314C8.06709 4.72495 8.31226 4.08714 8.76518 3.6093C9.21811 3.13146 9.8419 2.85253 10.5 2.83355C11.1581 2.85253 11.7819 3.13146 12.2348 3.6093C12.6878 4.08714 12.9329 4.72495 12.9167 5.38314V7.66689H8.08334V5.38314ZM17.75 20.9586C17.75 21.279 17.6227 21.5864 17.3961 21.813C17.1695 22.0396 16.8621 22.1669 16.5417 22.1669H4.45834C4.13787 22.1669 3.83053 22.0396 3.60392 21.813C3.37732 21.5864 3.25001 21.279 3.25001 20.9586V11.2919C3.25001 10.9714 3.37732 10.6641 3.60392 10.4375C3.83053 10.2109 4.13787 10.0836 4.45834 10.0836H16.5417C16.8621 10.0836 17.1695 10.2109 17.3961 10.4375C17.6227 10.6641 17.75 10.9714 17.75 11.2919V20.9586Z" fill="url(#paint0_linear_264_1228)"/>
<path d="M10.5 12.5C9.78308 12.5 9.08222 12.7126 8.48609 13.1109C7.88996 13.5092 7.42534 14.0754 7.15097 14.7378C6.8766 15.4002 6.80481 16.129 6.94469 16.8322C7.08456 17.5354 7.4298 18.1813 7.93677 18.6883C8.44374 19.1952 9.08965 19.5405 9.79283 19.6803C10.496 19.8202 11.2249 19.7484 11.8873 19.4741C12.5496 19.1997 13.1158 18.7351 13.5141 18.1389C13.9124 17.5428 14.125 16.842 14.125 16.125C14.125 15.1636 13.7431 14.2416 13.0633 13.5617C12.3835 12.8819 11.4614 12.5 10.5 12.5ZM10.5 17.3333C10.261 17.3333 10.0274 17.2625 9.82872 17.1297C9.63001 16.9969 9.47513 16.8082 9.38368 16.5874C9.29222 16.3666 9.26829 16.1237 9.31492 15.8893C9.36154 15.6549 9.47662 15.4396 9.64561 15.2706C9.8146 15.1016 10.0299 14.9865 10.2643 14.9399C10.4987 14.8933 10.7416 14.9172 10.9624 15.0086C11.1832 15.1001 11.372 15.255 11.5047 15.4537C11.6375 15.6524 11.7084 15.886 11.7084 16.125C11.7084 16.4455 11.5811 16.7528 11.3545 16.9794C11.1278 17.206 10.8205 17.3333 10.5 17.3333Z" fill="url(#paint1_linear_264_1228)"/>
<defs>
<linearGradient id="paint0_linear_264_1228" x1="-37.955" y1="-15.0583" x2="9.69658" y2="-23.6286" gradientUnits="userSpaceOnUse">
<stop stop-color="#F76B1C"/>
<stop offset="1" stop-color="#FAD961"/>
</linearGradient>
<linearGradient id="paint1_linear_264_1228" x1="-7.67059" y1="7.79167" x2="9.89853" y2="3.86358" gradientUnits="userSpaceOnUse">
<stop stop-color="#F76B1C"/>
<stop offset="1" stop-color="#FAD961"/>
</linearGradient>
</defs>
</svg>
