<svg width="24" height="24" viewBox="0 0 24 24" fill="none" xmlns="http://www.w3.org/2000/svg">
<path d="M13.1667 0.333234C10.408 0.0683029 7.64503 0.794098 5.37267 2.38064C3.1003 3.96719 1.46694 6.31085 0.76509 8.99193C0.0632372 11.673 0.338738 14.5164 1.54225 17.0128C2.74577 19.5093 4.79869 21.4958 7.33337 22.6166C8.80131 23.2804 10.3893 23.6377 12 23.6666C14.5644 23.6668 17.0573 22.8221 19.0934 21.2632C19.3391 21.0759 19.5005 20.7986 19.542 20.4924C19.5836 20.1862 19.5019 19.876 19.315 19.6299C19.2222 19.5066 19.1057 19.4029 18.9725 19.3249C18.8393 19.2469 18.6919 19.1961 18.5388 19.1755C18.3858 19.1548 18.2302 19.1648 18.0811 19.2048C17.932 19.2447 17.7922 19.3139 17.67 19.4082C16.4601 20.3222 15.0456 20.9276 13.5491 21.172C12.0525 21.4165 10.519 21.2926 9.08104 20.8111C7.64314 20.3296 6.34419 19.5051 5.2966 18.4087C4.249 17.3124 3.4843 15.9773 3.06866 14.519C2.65302 13.0607 2.59896 11.5231 2.91115 10.0392C3.22333 8.55535 3.89237 7.16987 4.86038 6.00266C5.82838 4.83546 7.0662 3.92169 8.46674 3.34041C9.86728 2.75913 11.3884 2.52785 12.8984 2.66657C15.2419 2.93781 17.4015 4.06849 18.9596 5.83991C20.5177 7.61133 21.3635 9.89762 21.3334 12.2566V13.0499C21.332 13.3179 21.2767 13.5829 21.1707 13.8291C21.0646 14.0752 20.9101 14.2975 20.7163 14.4826C20.5225 14.6677 20.2933 14.8119 20.0425 14.9065C19.7918 15.0011 19.5245 15.0442 19.2567 15.0332C18.7226 14.9746 18.2306 14.7157 17.8799 14.3087C17.5292 13.9016 17.3458 13.3768 17.3667 12.8399V7.7999C17.3667 7.49048 17.2438 7.19374 17.025 6.97494C16.8062 6.75615 16.5095 6.63323 16.2 6.63323C15.9152 6.63082 15.6393 6.7327 15.4244 6.91968C15.2095 7.10665 15.0704 7.36579 15.0334 7.64823C13.9476 6.62574 12.5115 6.05796 11.02 6.06157C10.0064 6.06917 9.01161 6.3361 8.13034 6.83697C7.24908 7.33783 6.51069 8.05593 5.98549 8.92291C5.46028 9.78989 5.16575 10.7769 5.12993 11.7899C5.09412 12.8029 5.31821 13.8082 5.78087 14.7102C6.24353 15.6121 6.92935 16.3805 7.77305 16.9424C8.61674 17.5042 9.59021 17.8408 10.6008 17.9199C11.6113 17.9991 12.6253 17.8183 13.5462 17.3947C14.4671 16.971 15.2642 16.3188 15.8617 15.4999C16.2003 16.0238 16.6514 16.4656 17.1822 16.7934C17.7129 17.1211 18.31 17.3265 18.9301 17.3947C19.5501 17.4628 20.1776 17.392 20.7668 17.1874C21.3561 16.9827 21.8924 16.6494 22.3367 16.2116C22.7644 15.8047 23.1033 15.3138 23.3321 14.7697C23.561 14.2256 23.6749 13.6401 23.6667 13.0499V12.2566C23.6928 9.32471 22.6356 6.48642 20.6979 4.28603C18.7602 2.08564 16.0783 0.678056 13.1667 0.333234ZM11.0434 15.6049C10.3304 15.6049 9.63338 15.3935 9.04054 14.9973C8.4477 14.6012 7.98564 14.0382 7.71279 13.3795C7.43993 12.7207 7.36854 11.9959 7.50764 11.2966C7.64674 10.5973 7.99009 9.95495 8.49425 9.45078C8.99842 8.94661 9.64077 8.60327 10.3401 8.46417C11.0394 8.32507 11.7642 8.39646 12.4229 8.66932C13.0817 8.94217 13.6447 9.40423 14.0408 9.99707C14.4369 10.5899 14.6484 11.2869 14.6484 11.9999C14.6453 12.9551 14.2645 13.8702 13.5891 14.5456C12.9137 15.221 11.9985 15.6018 11.0434 15.6049Z" fill="url(#paint0_linear_264_1254)"/>
<defs>
<linearGradient id="paint0_linear_264_1254" x1="-46.3265" y1="-14.9082" x2="10.1182" y2="-27.4717" gradientUnits="userSpaceOnUse">
<stop stop-color="#F76B1C"/>
<stop offset="1" stop-color="#FAD961"/>
</linearGradient>
</defs>
</svg>
