<svg width="20" height="18" viewBox="0 0 20 18" fill="none" xmlns="http://www.w3.org/2000/svg">
<path d="M14.6925 18H2.51277C1.84659 17.9992 1.20794 17.7488 0.736877 17.3037C0.265818 16.8587 0.000818149 16.2553 0 15.6258V4.11804C0.000818149 3.48862 0.265818 2.88519 0.736877 2.44012C1.20794 1.99505 1.84659 1.74467 2.51277 1.7439H8.60262C8.80761 1.7439 9.00421 1.82084 9.14916 1.95779C9.29411 2.09475 9.37555 2.2805 9.37555 2.47418C9.37555 2.66786 9.29411 2.85361 9.14916 2.99057C9.00421 3.12752 8.80761 3.20446 8.60262 3.20446H2.51277C2.25645 3.20485 2.01075 3.30122 1.8295 3.47247C1.64826 3.64372 1.54625 3.87586 1.54584 4.11804V15.6258C1.54625 15.868 1.64826 16.1002 1.8295 16.2714C2.01075 16.4426 2.25645 16.539 2.51277 16.5394H14.6925C14.9488 16.539 15.1945 16.4426 15.3757 16.2714C15.557 16.1002 15.659 15.868 15.6594 15.6258V9.87193C15.6594 9.67825 15.7408 9.4925 15.8858 9.35555C16.0307 9.21859 16.2273 9.14165 16.4323 9.14165C16.6373 9.14165 16.8339 9.21859 16.9789 9.35555C17.1238 9.4925 17.2052 9.67825 17.2052 9.87193V15.6258C17.2044 16.2553 16.9394 16.8587 16.4684 17.3037C15.9973 17.7488 15.3587 17.9992 14.6925 18Z" fill="url(#paint0_linear_309_1617)"/>
<path d="M16.4323 1.03318e-05C16.9498 0.000638321 17.4554 0.146114 17.8855 0.41807C18.3155 0.690026 18.6507 1.07627 18.8485 1.52804C19.0464 1.97981 19.0982 2.47685 18.9974 2.9564C18.8965 3.43596 18.6475 3.87653 18.2819 4.2225L10.0186 12.0321C9.91943 12.1258 9.79519 12.1922 9.65917 12.2242L6.18102 13.0465C6.05144 13.0773 5.91562 13.0758 5.78681 13.0423C5.65801 13.0087 5.54061 12.9441 5.44609 12.8549C5.35157 12.7657 5.28314 12.6548 5.2475 12.5331C5.21185 12.4115 5.21019 12.2831 5.24269 12.1607L6.11301 8.8744C6.14692 8.74588 6.21718 8.6285 6.31628 8.53482L14.5804 0.72445C14.823 0.493999 15.1116 0.311312 15.4295 0.186961C15.7474 0.0626109 16.0882 -0.00093212 16.4323 1.03318e-05ZM9.07716 10.8564L17.1928 3.18842C17.2925 3.09429 17.3715 2.98255 17.4254 2.85956C17.4793 2.73658 17.5071 2.60477 17.5071 2.47165C17.5071 2.33853 17.4793 2.20672 17.4254 2.08374C17.3715 1.96075 17.2925 1.84901 17.1928 1.75488C17.0932 1.66075 16.9749 1.58608 16.8448 1.53514C16.7146 1.4842 16.5751 1.45798 16.4342 1.45798C16.2933 1.45798 16.1538 1.4842 16.0237 1.53514C15.8935 1.58608 15.7752 1.66075 15.6756 1.75488L7.55992 9.42284L7.05442 11.334L9.07716 10.8564Z" fill="url(#paint1_linear_309_1617)"/>
<defs>
<linearGradient id="paint0_linear_309_1617" x1="-34.5187" y1="-8.81321" x2="6.93796" y2="-18.6232" gradientUnits="userSpaceOnUse">
<stop stop-color="#F76B1C"/>
<stop offset="1" stop-color="#FAD961"/>
</linearGradient>
<linearGradient id="paint1_linear_309_1617" x1="-22.5237" y1="-8.48706" x2="10.7965" y2="-16.3697" gradientUnits="userSpaceOnUse">
<stop stop-color="#F76B1C"/>
<stop offset="1" stop-color="#FAD961"/>
</linearGradient>
</defs>
</svg>
