<svg width="18" height="23" viewBox="0 0 18 23" fill="none" xmlns="http://www.w3.org/2000/svg">
<path d="M8.7928 10.2917C9.78019 10.2917 10.7454 10.0082 11.5664 9.47711C12.3874 8.94601 13.0273 8.19115 13.4051 7.30797C13.783 6.4248 13.8818 5.45297 13.6892 4.5154C13.4966 3.57782 13.0211 2.71661 12.3229 2.04065C11.6247 1.3647 10.7352 0.904369 9.76676 0.717873C8.79834 0.531378 7.79455 0.627094 6.88232 0.992918C5.97009 1.35874 5.1904 1.97824 4.64183 2.77308C4.09327 3.56792 3.80048 4.50239 3.80048 5.45834C3.80048 6.74022 4.32645 7.96959 5.26269 8.87602C6.19894 9.78244 7.46875 10.2917 8.7928 10.2917ZM8.7928 3.04167C9.2865 3.04167 9.7691 3.1834 10.1796 3.44895C10.5901 3.7145 10.91 4.09193 11.099 4.53352C11.2879 4.97511 11.3373 5.46102 11.241 5.9298C11.1447 6.39859 10.9069 6.8292 10.5579 7.16718C10.2088 7.50515 9.76399 7.73532 9.27978 7.82857C8.79557 7.92181 8.29368 7.87396 7.83756 7.69104C7.38145 7.50813 6.9916 7.19838 6.71732 6.80096C6.44304 6.40354 6.29664 5.93631 6.29664 5.45834C6.29664 4.8174 6.55963 4.20271 7.02775 3.74949C7.49587 3.29628 8.13078 3.04167 8.7928 3.04167Z" fill="url(#paint0_linear_259_1198)"/>
<path d="M8.79278 12.7083C6.4757 12.7083 4.25352 13.5994 2.61509 15.1856C0.976671 16.7719 0.0562134 18.9233 0.0562134 21.1666C0.0562134 21.4871 0.187708 21.7944 0.421768 22.021C0.655829 22.2476 0.973283 22.3749 1.30429 22.3749C1.63531 22.3749 1.95276 22.2476 2.18682 22.021C2.42088 21.7944 2.55238 21.4871 2.55238 21.1666C2.55238 19.5642 3.20985 18.0275 4.38015 16.8945C5.55045 15.7614 7.13772 15.1249 8.79278 15.1249C10.4478 15.1249 12.0351 15.7614 13.2054 16.8945C14.3757 18.0275 15.0332 19.5642 15.0332 21.1666C15.0332 21.4871 15.1647 21.7944 15.3987 22.021C15.6328 22.2476 15.9503 22.3749 16.2813 22.3749C16.6123 22.3749 16.9297 22.2476 17.1638 22.021C17.3979 21.7944 17.5294 21.4871 17.5294 21.1666C17.5294 18.9233 16.6089 16.7719 14.9705 15.1856C13.332 13.5994 11.1099 12.7083 8.79278 12.7083Z" fill="url(#paint1_linear_259_1198)"/>
<defs>
<linearGradient id="paint0_linear_259_1198" x1="-16.2317" y1="-5.65278" x2="7.88763" y2="-11.2227" gradientUnits="userSpaceOnUse">
<stop stop-color="#F76B1C"/>
<stop offset="1" stop-color="#FAD961"/>
</linearGradient>
<linearGradient id="paint1_linear_259_1198" x1="-35" y1="6.43048" x2="3.21784" y2="-9.01463" gradientUnits="userSpaceOnUse">
<stop stop-color="#F76B1C"/>
<stop offset="1" stop-color="#FAD961"/>
</linearGradient>
</defs>
</svg>
