<svg width="225" height="218" viewBox="0 0 225 218" fill="none" xmlns="http://www.w3.org/2000/svg">
<g clip-path="url(#clip0_216_3614)">
<path d="M143.509 48.8677H131.537V150.352C131.537 151.944 131.221 153.521 130.609 154.992C129.996 156.463 129.098 157.8 127.965 158.925C126.833 160.051 125.489 160.944 124.009 161.554C122.53 162.163 120.944 162.477 119.342 162.477H27.8138V162.593C27.8138 164.185 28.1292 165.762 28.742 167.233C29.3548 168.704 30.2531 170.04 31.3854 171.166C32.5177 172.292 33.862 173.185 35.3415 173.795C36.821 174.404 38.4067 174.718 40.0081 174.718H143.508C145.11 174.718 146.696 174.404 148.175 173.795C149.655 173.185 150.999 172.292 152.131 171.166C153.264 170.04 154.162 168.704 154.775 167.233C155.387 165.762 155.703 164.185 155.703 162.593V60.9925C155.703 57.7768 154.418 54.6928 152.131 52.419C149.844 50.1451 146.743 48.8677 143.509 48.8677Z" fill="#B9B9B9"/>
<path d="M200.26 210.142C200.472 210.152 200.682 210.096 200.861 209.983C201.04 209.871 201.18 209.706 201.262 209.511C201.344 209.316 201.364 209.101 201.319 208.895C201.273 208.689 201.166 208.502 201.01 208.359L200.939 208.078C200.948 208.056 200.958 208.033 200.967 208.011C201.181 207.51 201.538 207.082 201.996 206.782C202.453 206.482 202.989 206.323 203.536 206.325C204.084 206.327 204.619 206.49 205.074 206.794C205.528 207.097 205.883 207.527 206.093 208.03C206.931 210.038 207.998 212.049 208.261 214.171C208.377 215.11 208.328 216.061 208.117 216.982C210.086 212.712 211.108 208.07 211.115 203.372C211.115 202.193 211.05 201.015 210.918 199.843C210.809 198.883 210.658 197.929 210.464 196.983C209.409 191.845 207.143 187.03 203.853 182.933C202.26 182.069 200.972 180.74 200.163 179.126C199.869 178.546 199.662 177.927 199.547 177.287C199.727 177.311 200.224 174.59 200.089 174.424C200.339 174.046 200.787 173.858 201.061 173.489C202.421 171.656 204.294 171.976 205.272 174.467C207.361 175.516 207.382 177.255 206.1 178.927C205.284 179.991 205.172 181.431 204.456 182.57C204.53 182.664 204.607 182.754 204.68 182.848C206.026 184.569 207.199 186.417 208.182 188.365C207.943 186.182 208.229 183.974 209.015 181.923C209.812 180.011 211.306 178.4 212.622 176.748C212.97 176.304 213.443 175.972 213.98 175.795C214.517 175.618 215.096 175.603 215.641 175.753C216.187 175.903 216.676 176.21 217.046 176.636C217.417 177.061 217.652 177.587 217.722 178.145C217.724 178.17 217.727 178.194 217.729 178.219C217.534 178.328 217.343 178.444 217.156 178.568C216.92 178.724 216.738 178.947 216.633 179.208C216.527 179.469 216.504 179.755 216.565 180.03C216.626 180.304 216.769 180.554 216.976 180.746C217.182 180.939 217.442 181.064 217.721 181.107L217.75 181.112C217.68 181.812 217.557 182.506 217.382 183.188C219.07 189.678 215.426 192.042 210.223 192.148C210.108 192.207 209.996 192.265 209.881 192.321C210.869 195.105 211.489 198.005 211.725 200.947C211.858 202.684 211.85 204.428 211.701 206.163L211.71 206.101C212.087 204.172 213.122 202.431 214.64 201.173C216.895 199.331 220.081 198.653 222.514 197.172C222.772 197.007 223.073 196.919 223.38 196.918C223.687 196.918 223.989 197.004 224.248 197.168C224.507 197.332 224.714 197.566 224.844 197.843C224.974 198.12 225.021 198.428 224.981 198.731L224.971 198.795C224.609 198.942 224.255 199.111 223.914 199.302C223.718 199.411 223.527 199.528 223.34 199.651C223.105 199.807 222.923 200.03 222.817 200.291C222.712 200.552 222.688 200.839 222.749 201.113C222.811 201.388 222.954 201.637 223.16 201.83C223.366 202.022 223.626 202.148 223.906 202.19L223.935 202.195C223.955 202.198 223.973 202.201 223.993 202.204C223.374 203.675 222.504 205.029 221.422 206.207C220.367 211.872 215.834 212.41 210.985 210.76H210.982C210.45 213.059 209.68 215.296 208.682 217.436H200.466C200.436 217.345 200.41 217.252 200.383 217.161C201.144 217.209 201.907 217.163 202.657 217.026C202.047 216.283 201.438 215.533 200.828 214.789C200.814 214.775 200.802 214.761 200.79 214.745C200.481 214.365 200.168 213.987 199.859 213.606L199.859 213.606C199.842 212.439 199.977 211.275 200.26 210.142L200.26 210.142Z" fill="#F2F2F2"/>
<path d="M109.761 35.063C110.061 35.5149 110.457 35.8966 110.919 36.1817C111.382 36.4669 111.902 36.6486 112.443 36.7144C112.983 36.7802 113.532 36.7284 114.05 36.5627C114.569 36.397 115.045 36.1213 115.445 35.7547L132.528 43.4178L135.821 39.2408L115.465 30.2867C114.794 29.6619 113.916 29.3035 112.998 29.2794C112.079 29.2553 111.183 29.5671 110.48 30.1558C109.777 30.7446 109.315 31.5693 109.183 32.4737C109.05 33.3781 109.256 34.2994 109.761 35.063H109.761Z" fill="#A0616A"/>
<path d="M183.073 39.8415L184.767 49.3877C184.846 49.8331 184.831 50.29 184.722 50.729C184.613 51.1681 184.412 51.5796 184.134 51.9372C183.855 52.2948 183.505 52.5905 183.105 52.8055C182.705 53.0204 182.264 53.1497 181.81 53.1852L153.021 55.4362L119.181 40.3774L123.223 32.7485L152.599 41.9982L183.073 39.8415Z" fill="url(#paint0_linear_216_3614)"/>
<path d="M115.695 33H12.1943C5.45958 33 0 38.4285 0 45.1248V146.725C0 153.421 5.45958 158.85 12.1943 158.85H115.695C122.429 158.85 127.889 153.421 127.889 146.725V45.1248C127.889 38.4285 122.429 33 115.695 33Z" fill="url(#paint1_linear_216_3614)"/>
<path d="M12.1944 35.4934C10.9224 35.4934 9.66276 35.7425 8.48753 36.2265C7.31231 36.7106 6.24447 37.42 5.34499 38.3144C4.44551 39.2087 3.732 40.2705 3.24521 41.439C2.75842 42.6075 2.50787 43.86 2.50787 45.1248V146.725C2.50787 149.28 3.52841 151.729 5.34499 153.536C7.16157 155.342 9.62538 156.356 12.1944 156.356H78.2509C84.4401 156.356 90.5688 155.144 96.2869 152.789C102.005 150.434 107.201 146.983 111.577 142.631C115.953 138.279 119.425 133.113 121.794 127.428C124.162 121.742 125.381 115.649 125.381 109.495V45.1248C125.381 43.86 125.131 42.6075 124.644 41.439C124.157 40.2705 123.444 39.2087 122.544 38.3144C121.645 37.42 120.577 36.7106 119.402 36.2265C118.226 35.7425 116.967 35.4934 115.695 35.4934H12.1944Z" fill="white"/>
<path d="M92.8776 66.3275H34.785C34.252 66.3275 33.7408 66.1169 33.3638 65.7421C32.9869 65.3673 32.7751 64.859 32.7751 64.329C32.7751 63.799 32.9869 63.2907 33.3638 62.9159C33.7408 62.5411 34.252 62.3306 34.785 62.3306H92.8776C93.4107 62.3306 93.9219 62.5411 94.2989 62.9159C94.6758 63.2907 94.8875 63.799 94.8875 64.329C94.8875 64.859 94.6758 65.3673 94.2989 65.7421C93.9219 66.1169 93.4107 66.3275 92.8776 66.3275Z" fill="url(#paint2_linear_216_3614)"/>
<path d="M92.8776 108.944H34.785C34.252 108.944 33.7408 108.733 33.3638 108.358C32.9869 107.984 32.7751 107.475 32.7751 106.945C32.7751 106.415 32.9869 105.907 33.3638 105.532C33.7408 105.157 34.252 104.947 34.785 104.947H92.8776C93.4107 104.947 93.9219 105.157 94.2989 105.532C94.6758 105.907 94.8875 106.415 94.8875 106.945C94.8875 107.475 94.6758 107.984 94.2989 108.358C93.9219 108.733 93.4107 108.944 92.8776 108.944Z" fill="url(#paint3_linear_216_3614)"/>
<path d="M116.468 87.6495H11.1949C10.6618 87.6495 10.1506 87.4389 9.77368 87.0642C9.39675 86.6894 9.185 86.1811 9.185 85.651C9.185 85.121 9.39675 84.6127 9.77368 84.2379C10.1506 83.8631 10.6618 83.6526 11.1949 83.6526H116.468C117.001 83.6526 117.512 83.8631 117.889 84.2379C118.266 84.6127 118.478 85.121 118.478 85.651C118.478 86.1811 118.266 86.6894 117.889 87.0642C117.512 87.4389 117.001 87.6495 116.468 87.6495Z" fill="url(#paint4_linear_216_3614)"/>
<path d="M179.436 81.9172L168.948 104.132L209.291 100.07L200.869 78.7437L179.436 81.9172Z" fill="#A0616A"/>
<path d="M188.815 209.6L184.99 209.568L183.297 194.556L188.941 194.604L188.815 209.6Z" fill="#A0616A"/>
<path d="M176.563 215.647C176.559 216.098 176.736 216.532 177.054 216.854C177.372 217.175 177.805 217.358 178.258 217.363L185.863 217.426L187.194 214.743L187.683 217.439L190.553 217.465L189.828 207.846L188.83 207.78L184.758 207.501L183.444 207.414L183.421 210.135L177.312 214.255C177.083 214.41 176.896 214.617 176.765 214.86C176.635 215.102 176.565 215.372 176.563 215.647Z" fill="#2F2E41"/>
<path d="M146.485 209.617L142.839 208.469L145.656 193.625L151.038 195.32L146.485 209.617Z" fill="#A0616A"/>
<path d="M132.987 211.818C132.851 212.248 132.892 212.715 133.1 213.115C133.309 213.515 133.669 213.817 134.101 213.953L141.352 216.235L143.417 214.059L143.088 216.78L145.823 217.643L147.973 208.237L147.038 207.882L143.228 206.426L141.998 205.958L141.172 208.553L134.115 210.707C133.851 210.787 133.61 210.931 133.413 211.124C133.217 211.318 133.071 211.556 132.987 211.818Z" fill="#2F2E41"/>
<path d="M207.453 93.8223L170.772 100.505C170.772 100.505 164.889 104.881 166.463 106.448C168.037 108.015 168.281 107.773 167.247 108.801C166.213 109.829 163.977 111.203 163.955 112.103C163.933 113.002 147.518 153.352 147.518 153.352C147.518 153.352 149.342 152.445 147.974 153.805C146.606 155.165 146.606 156.289 146.606 156.289L140.223 199.142L150.59 199.749L160.741 160.681L183.384 124.183C183.384 124.183 185.631 156.73 185.725 158.894C185.819 161.059 187.187 158.339 185.819 161.059C184.451 163.779 183.539 161.966 184.451 163.779C185.363 165.593 181.166 202.512 181.166 202.512H190.629L210.924 125.988C210.924 125.988 218.144 104.111 207.453 93.8223Z" fill="#2F2E41"/>
<path d="M196.648 32.6127L181.954 31.0947L178.147 36.0089L173.713 38.3574C171.836 39.3513 170.287 40.8616 169.251 42.7078C168.214 44.5539 167.735 46.6578 167.87 48.7678L173.052 78.7438C173.052 78.7438 168.675 88.5452 171.684 90.9847C174.694 93.4242 169.357 99.4659 175.788 96.4251C182.219 93.3843 209.985 96.8785 209.985 96.8785L204.058 80.1039L208.486 63.6207L208.973 49.7997C209.064 47.217 208.293 44.677 206.781 42.5754C205.268 40.4739 203.099 38.9289 200.611 38.1814L199.992 37.9953L196.648 32.6127Z" fill="url(#paint5_linear_216_3614)"/>
<path d="M216.876 21.4125C216.972 25.5304 215.425 29.5178 213.201 33.02C212.54 30.9755 211.353 29.1147 210.114 27.3408C210.739 31.1782 210.073 35.1132 208.222 38.5369C208.157 38.5833 208.089 38.6264 208.019 38.6661C206.207 39.7501 203.909 40.1891 201.949 39.4062C206 35.0645 206.515 27.8708 203.119 23.0009C202.157 21.619 200.914 20.3969 200.318 18.8243C199.378 16.3151 200.282 13.5525 200.852 10.9364C201.385 8.50164 201.478 5.60425 199.836 3.81988C200.011 3.57052 200.25 3.37202 200.528 3.24474C200.806 3.11745 201.113 3.06596 201.418 3.09552C202.431 3.23778 203.168 4.11317 203.638 5.01476C204.107 5.91633 204.417 6.91558 205.071 7.69431C206.283 9.15188 208.347 9.49648 210.086 10.2647C214.298 12.1301 216.775 16.8304 216.876 21.4125Z" fill="#2F2E41"/>
<path d="M108.36 217.46C108.36 217.531 108.374 217.602 108.401 217.667C108.428 217.733 108.468 217.792 108.518 217.842C108.569 217.892 108.629 217.932 108.695 217.959C108.761 217.986 108.831 218 108.903 218H224.393C224.537 218 224.675 217.943 224.777 217.842C224.879 217.741 224.936 217.603 224.936 217.46C224.936 217.317 224.879 217.18 224.777 217.079C224.675 216.978 224.537 216.921 224.393 216.921H108.903C108.831 216.921 108.761 216.934 108.695 216.962C108.629 216.989 108.569 217.028 108.518 217.078C108.468 217.129 108.428 217.188 108.401 217.254C108.374 217.319 108.36 217.389 108.36 217.46Z" fill="#CCCCCC"/>
<path d="M217.785 116.854C220.052 116.854 221.889 115.027 221.889 112.774C221.889 110.52 220.052 108.693 217.785 108.693C215.519 108.693 213.682 110.52 213.682 112.774C213.682 115.027 215.519 116.854 217.785 116.854Z" fill="url(#paint6_linear_216_3614)"/>
<path d="M181.421 19.0581C181.662 18.2205 180.003 23.3408 180.804 23.4332C184.45 23.8491 189.455 26.0143 191.995 27.0244C192.109 27.0112 192.223 26.998 192.334 26.9815C192.607 26.9518 192.872 26.9089 193.135 26.8594C199.048 25.7469 201.322 16.7153 201.322 16.6327C201.322 16.2267 200.342 5.07509 198.798 4.91007C198.392 4.86632 197.985 4.84428 197.577 4.84405H193.746C192.953 4.67419 192.15 4.55838 191.341 4.49744H191.334C183.621 3.91316 177.54 8.58736 178.108 14.275C178.112 14.2816 178.119 14.2882 178.122 14.2948C178.287 14.5391 178.431 14.7702 178.559 14.9913C178.684 15.1993 178.788 15.3973 178.879 15.5855C179.582 17.0379 177.775 18.8656 178.973 19.2067C180.567 19.6604 174.782 34.5729 181.089 34.5729C178.021 35.4403 180.757 21.3688 181.421 19.0581Z" fill="#2F2E41"/>
<path d="M188.306 27.8081C193.316 27.8081 197.377 23.7702 197.377 18.7891C197.377 13.808 193.316 9.77002 188.306 9.77002C183.297 9.77002 179.236 13.808 179.236 18.7891C179.236 23.7702 183.297 27.8081 188.306 27.8081Z" fill="#A0616A"/>
<path d="M178.108 14.7667C178.26 14.8459 178.408 14.9186 178.559 14.9912C178.717 15.0671 178.875 15.143 179.033 15.2123C182.071 16.5823 184.543 16.7341 186.043 14.7667C186.083 13.7315 186.317 12.7128 186.733 11.7628C186.659 12.8245 186.941 13.8805 187.533 14.7667H190.554C193.665 16.8199 195.263 17.0345 193.103 23.7751C192.501 25.6534 190.107 36.583 191.049 38.2038C191.322 38.1741 194.22 26.2028 194.482 26.1533C200.396 25.0409 204.153 15.3543 203.672 14.8063C203.674 13.2481 203.314 11.7104 202.619 10.3137C201.74 8.54409 200.37 7.06183 198.67 6.04218C197.657 5.55377 196.601 5.15928 195.515 4.86371C195.488 4.8571 195.465 4.8505 195.438 4.84391C195.105 4.75477 194.765 4.67225 194.425 4.60293C193.723 4.45558 193.014 4.34867 192.3 4.28274C192.249 4.27943 192.199 4.27612 192.152 4.27612C191.866 4.27679 191.586 4.35314 191.341 4.49731C191.338 4.49731 191.338 4.50059 191.334 4.50059C191.159 4.60256 191.005 4.73835 190.883 4.90001C190.669 5.172 190.552 5.50816 190.554 5.854H187.19C187.066 5.854 186.941 5.8573 186.817 5.86389C184.572 5.94017 182.436 6.84666 180.828 8.40597C179.22 9.96528 178.255 12.0652 178.122 14.2947C178.112 14.4531 178.108 14.6083 178.108 14.7667Z" fill="#2F2E41"/>
<path d="M197.941 11.8836C201.241 11.8836 203.917 9.22337 203.917 5.9418C203.917 2.66024 201.241 0 197.941 0C194.641 0 191.965 2.66024 191.965 5.9418C191.965 9.22337 194.641 11.8836 197.941 11.8836Z" fill="#2F2E41"/>
<path d="M217.832 114.456C218.123 113.999 218.311 113.484 218.383 112.947C218.455 112.411 218.409 111.865 218.248 111.347C218.087 110.83 217.814 110.354 217.45 109.952C217.085 109.549 216.637 109.231 216.137 109.017L216.166 90.3835L210.985 89.1082L211.112 111.24C210.814 112.105 210.845 113.048 211.2 113.891C211.554 114.735 212.207 115.419 213.035 115.816C213.864 116.212 214.809 116.293 215.693 116.042C216.577 115.791 217.338 115.227 217.832 114.456V114.456Z" fill="#A0616A"/>
<path d="M192.172 46.0062L200.235 40.5575C200.611 40.3033 201.037 40.1301 201.484 40.0491C201.932 39.968 202.391 39.9809 202.833 40.0869C203.276 40.1929 203.691 40.3897 204.052 40.6646C204.413 40.9395 204.712 41.2864 204.931 41.6831L218.794 66.8715L218.847 103.735L210.192 103.195L206.639 72.7613L192.172 46.0062Z" fill="url(#paint7_linear_216_3614)"/>
<path d="M130.244 129.607H44.0668C42.1924 129.607 40.3948 130.347 39.0694 131.665C37.744 132.983 36.9994 134.77 36.9994 136.634C36.9994 138.498 37.744 140.285 39.0694 141.603C40.3948 142.921 42.1924 143.661 44.0668 143.661H130.244C132.118 143.661 133.916 142.921 135.241 141.603C136.567 140.285 137.311 138.498 137.311 136.634C137.311 134.77 136.567 132.983 135.241 131.665C133.916 130.347 132.118 129.607 130.244 129.607Z" fill="white"/>
<path d="M130.244 144.115H44.0668C42.0715 144.115 40.1579 143.327 38.7469 141.924C37.336 140.521 36.5434 138.618 36.5434 136.634C36.5434 134.65 37.336 132.747 38.7469 131.345C40.1579 129.942 42.0715 129.154 44.0668 129.154H130.244C132.239 129.154 134.153 129.942 135.564 131.345C136.975 132.747 137.767 134.65 137.767 136.634C137.767 138.618 136.975 140.521 135.564 141.924C134.153 143.327 132.239 144.115 130.244 144.115ZM44.0668 130.06C42.3133 130.06 40.6317 130.753 39.3918 131.986C38.1519 133.219 37.4553 134.891 37.4553 136.634C37.4553 138.378 38.1519 140.05 39.3918 141.282C40.6317 142.515 42.3133 143.208 44.0668 143.208H130.244C131.997 143.208 133.679 142.515 134.919 141.282C136.159 140.05 136.855 138.378 136.855 136.634C136.855 134.891 136.159 133.219 134.919 131.986C133.679 130.753 131.997 130.06 130.244 130.06H44.0668Z" fill="url(#paint8_linear_216_3614)"/>
<path d="M135.325 160.274H97.2951C96.7621 160.274 96.2508 160.063 95.8739 159.689C95.497 159.314 95.2852 158.806 95.2852 158.276C95.2852 157.746 95.497 157.237 95.8739 156.862C96.2508 156.488 96.7621 156.277 97.2951 156.277H135.325C135.858 156.277 136.37 156.488 136.747 156.862C137.123 157.237 137.335 157.746 137.335 158.276C137.335 158.806 137.123 159.314 136.747 159.689C136.37 160.063 135.858 160.274 135.325 160.274Z" fill="url(#paint9_linear_216_3614)"/>
</g>
<defs>
<linearGradient id="paint0_linear_216_3614" x1="126.751" y1="32.7485" x2="170.119" y2="66.4803" gradientUnits="userSpaceOnUse">
<stop stop-color="#F76B1C"/>
<stop offset="1" stop-color="#FAD961"/>
</linearGradient>
<linearGradient id="paint1_linear_216_3614" x1="14.75" y1="33" x2="140.952" y2="67.4803" gradientUnits="userSpaceOnUse">
<stop stop-color="#F76B1C"/>
<stop offset="1" stop-color="#FAD961"/>
</linearGradient>
<linearGradient id="paint2_linear_216_3614" x1="39.9388" y1="62.3306" x2="43.5077" y2="77.2415" gradientUnits="userSpaceOnUse">
<stop stop-color="#F76B1C"/>
<stop offset="1" stop-color="#FAD961"/>
</linearGradient>
<linearGradient id="paint3_linear_216_3614" x1="39.9388" y1="104.947" x2="43.5077" y2="119.858" gradientUnits="userSpaceOnUse">
<stop stop-color="#F76B1C"/>
<stop offset="1" stop-color="#FAD961"/>
</linearGradient>
<linearGradient id="paint4_linear_216_3614" x1="21.7902" y1="83.6526" x2="23.8956" y2="99.1314" gradientUnits="userSpaceOnUse">
<stop stop-color="#F76B1C"/>
<stop offset="1" stop-color="#FAD961"/>
</linearGradient>
<linearGradient id="paint5_linear_216_3614" x1="172.707" y1="31.0947" x2="216.121" y2="38.5279" gradientUnits="userSpaceOnUse">
<stop stop-color="#F76B1C"/>
<stop offset="1" stop-color="#FAD961"/>
</linearGradient>
<linearGradient id="paint6_linear_216_3614" x1="214.628" y1="108.693" x2="222.739" y2="110.886" gradientUnits="userSpaceOnUse">
<stop stop-color="#F76B1C"/>
<stop offset="1" stop-color="#FAD961"/>
</linearGradient>
<linearGradient id="paint7_linear_216_3614" x1="195.248" y1="39.9966" x2="223.182" y2="43.1397" gradientUnits="userSpaceOnUse">
<stop stop-color="#F76B1C"/>
<stop offset="1" stop-color="#FAD961"/>
</linearGradient>
<linearGradient id="paint8_linear_216_3614" x1="48.218" y1="129.154" x2="73.1301" y2="174.47" gradientUnits="userSpaceOnUse">
<stop stop-color="#F76B1C"/>
<stop offset="1" stop-color="#FAD961"/>
</linearGradient>
<linearGradient id="paint9_linear_216_3614" x1="10.9206" y1="153.681" x2="27.2986" y2="115.157" gradientUnits="userSpaceOnUse">
<stop stop-color="#F76B1C"/>
<stop offset="1" stop-color="#FAD961"/>
</linearGradient>
<clipPath id="clip0_216_3614">
<rect width="225" height="218" fill="white"/>
</clipPath>
</defs>
</svg>
