<svg width="260" height="204" viewBox="0 0 260 204" fill="none" xmlns="http://www.w3.org/2000/svg">
<g clip-path="url(#clip0_216_3115)">
<path d="M236.668 186.231C231.684 191.563 225.973 196.168 219.703 199.909C219.559 199.997 219.413 200.08 219.266 200.166L209.117 191.188C209.223 191.089 209.341 190.978 209.468 190.856C217.031 183.679 254.576 133.502 257.078 121.283C256.905 122.301 259.335 162.222 236.668 186.231Z" fill="#F0F0F0"/>
<path d="M221.662 201.641C221.47 201.686 221.274 201.729 221.079 201.768L213.464 195.033C213.613 194.981 213.787 194.92 213.986 194.851C217.253 193.695 226.983 190.205 236.667 186.23C247.073 181.957 257.428 177.128 259.655 174.036C259.177 174.754 244.461 196.546 221.662 201.641Z" fill="#F0F0F0"/>
<path d="M236.527 53.4269H235.443V23.7394C235.443 21.483 234.998 19.2487 234.134 17.1641C233.27 15.0794 232.004 13.1852 230.407 11.5897C228.81 9.99419 226.915 8.72855 224.829 7.86505C222.743 7.00156 220.507 6.55713 218.249 6.55713H155.312C153.054 6.55712 150.818 7.00155 148.732 7.86504C146.646 8.72852 144.751 9.99416 143.154 11.5897C141.558 13.1852 140.291 15.0794 139.427 17.164C138.563 19.2487 138.118 21.483 138.118 23.7394V186.607C138.118 188.864 138.563 191.098 139.427 193.183C140.291 195.267 141.558 197.161 143.154 198.757C144.751 200.352 146.646 201.618 148.732 202.482C150.818 203.345 153.054 203.79 155.312 203.79H218.249C220.507 203.79 222.743 203.345 224.829 202.482C226.915 201.618 228.81 200.352 230.407 198.757C232.004 197.161 233.27 195.267 234.134 193.183C234.998 191.098 235.443 188.864 235.443 186.607V74.559H236.527V53.4269Z" fill="#3F3D56"/>
<path d="M231.783 23.8575V186.488C231.783 188.173 231.451 189.842 230.805 191.399C230.16 192.955 229.214 194.37 228.021 195.561C226.829 196.753 225.413 197.697 223.855 198.342C222.297 198.986 220.627 199.318 218.941 199.317H155.7C154.015 199.317 152.345 198.985 150.788 198.341C149.23 197.696 147.815 196.751 146.623 195.56C145.431 194.369 144.485 192.954 143.84 191.398C143.195 189.841 142.863 188.173 142.863 186.488V23.8575C142.863 22.1727 143.195 20.5044 143.84 18.9479C144.485 17.3914 145.431 15.9771 146.623 14.7858C147.815 13.5945 149.23 12.6495 150.788 12.0048C152.345 11.3602 154.015 11.0284 155.7 11.0286H163.375C162.998 11.9543 162.855 12.9583 162.958 13.9523C163.06 14.9464 163.406 15.9 163.964 16.7293C164.522 17.5586 165.275 18.2382 166.157 18.7083C167.04 19.1784 168.024 19.4246 169.024 19.4253H205.08C206.08 19.4262 207.066 19.181 207.949 18.7114C208.832 18.2417 209.586 17.562 210.145 16.7322C210.703 15.9025 211.048 14.9481 211.15 13.9534C211.252 12.9587 211.108 11.9542 210.729 11.0286H218.941C220.627 11.028 222.297 11.3593 223.855 12.0038C225.413 12.6482 226.829 13.5931 228.021 14.7844C229.214 15.9758 230.16 17.3902 230.805 18.947C231.451 20.5038 231.783 22.1724 231.783 23.8575Z" fill="white"/>
<path d="M212.111 108.369H156.524C155.551 108.368 154.617 107.981 153.929 107.293C153.24 106.605 152.853 105.672 152.852 104.699V102.873C152.853 101.9 153.24 100.967 153.929 100.279C154.617 99.5907 155.551 99.2037 156.524 99.2026H212.111C213.085 99.2037 214.018 99.5907 214.707 100.279C215.395 100.967 215.782 101.9 215.783 102.873V104.699C215.782 105.672 215.395 106.605 214.707 107.293C214.018 107.981 213.085 108.368 212.111 108.369Z" fill="#F0F0F0"/>
<path d="M212.111 124.116H156.524C155.551 124.115 154.617 123.728 153.929 123.04C153.24 122.352 152.853 121.419 152.852 120.446V118.619C152.853 117.646 153.24 116.713 153.929 116.025C154.617 115.337 155.551 114.95 156.524 114.949H212.111C213.085 114.95 214.018 115.337 214.707 116.025C215.395 116.713 215.782 117.646 215.783 118.619V120.446C215.782 121.419 215.395 122.352 214.707 123.04C214.018 123.728 213.085 124.115 212.111 124.116Z" fill="#F0F0F0"/>
<path d="M214.892 104.848H159.305C158.283 104.846 157.303 104.44 156.58 103.718C155.857 102.995 155.45 102.016 155.449 100.994V99.1674C155.45 98.1458 155.857 97.1663 156.58 96.4439C157.303 95.7215 158.283 95.3151 159.305 95.314H214.892C215.914 95.3151 216.894 95.7215 217.617 96.4439C218.34 97.1663 218.746 98.1458 218.748 99.1674V100.994C218.746 102.016 218.34 102.995 217.617 103.718C216.894 104.44 215.914 104.846 214.892 104.848ZM159.305 96.048C158.477 96.0489 157.684 96.3778 157.099 96.9626C156.514 97.5474 156.184 98.3404 156.183 99.1674V100.994C156.184 101.821 156.514 102.614 157.099 103.199C157.684 103.784 158.477 104.113 159.305 104.114H214.892C215.719 104.113 216.513 103.784 217.098 103.199C217.683 102.614 218.012 101.821 218.013 100.994V99.1674C218.012 98.3404 217.683 97.5474 217.098 96.9626C216.513 96.3778 215.719 96.0489 214.892 96.048H159.305Z" fill="#3F3D56"/>
<path d="M214.892 120.594H159.305C158.283 120.593 157.303 120.187 156.58 119.464C155.857 118.742 155.45 117.762 155.449 116.741V114.914C155.45 113.892 155.857 112.913 156.58 112.19C157.303 111.468 158.283 111.062 159.305 111.061H214.892C215.914 111.062 216.894 111.468 217.617 112.19C218.34 112.913 218.746 113.892 218.748 114.914V116.741C218.746 117.762 218.34 118.742 217.617 119.464C216.894 120.187 215.914 120.593 214.892 120.594ZM159.305 111.795C158.477 111.795 157.684 112.124 157.099 112.709C156.514 113.294 156.184 114.087 156.183 114.914V116.741C156.184 117.568 156.514 118.361 157.099 118.945C157.684 119.53 158.477 119.859 159.305 119.86H214.892C215.719 119.859 216.513 119.53 217.098 118.945C217.683 118.361 218.012 117.568 218.013 116.741V114.914C218.012 114.087 217.683 113.294 217.098 112.709C216.513 112.124 215.719 111.795 214.892 111.795H159.305Z" fill="#3F3D56"/>
<path d="M231.783 23.8575V59.2319C226.158 60.7107 220.269 60.8804 214.569 59.7279C208.869 58.5753 203.509 56.1314 198.902 52.584C194.295 49.0366 190.564 44.4804 187.995 39.2658C185.427 34.0512 184.089 28.3172 184.086 22.5051C184.086 21.4677 184.128 20.4411 184.211 19.4253H205.08C206.08 19.4262 207.066 19.181 207.949 18.7114C208.832 18.2417 209.586 17.562 210.145 16.7322C210.703 15.9025 211.048 14.9481 211.15 13.9534C211.252 12.9587 211.108 11.9542 210.729 11.0286H218.941C220.627 11.028 222.297 11.3593 223.855 12.0038C225.413 12.6482 226.829 13.5931 228.021 14.7844C229.214 15.9758 230.16 17.3902 230.805 18.947C231.451 20.5038 231.783 22.1724 231.783 23.8575Z" fill="#F0F0F0"/>
<path d="M174.817 197.108C174.817 197.854 174.789 198.59 174.729 199.317H155.7C154.015 199.317 152.345 198.986 150.788 198.341C149.23 197.696 147.815 196.751 146.623 195.56C145.431 194.369 144.485 192.954 143.84 191.398C143.195 189.841 142.863 188.173 142.863 186.488V169.093C146.852 168.574 150.905 168.912 154.753 170.082C158.601 171.252 162.156 173.229 165.179 175.879C168.203 178.53 170.627 181.795 172.288 185.455C173.95 189.116 174.812 193.088 174.817 197.108H174.817Z" fill="url(#paint0_linear_216_3115)"/>
<path d="M21.344 166.585C21.8787 166.82 22.4848 166.834 23.0294 166.623C23.574 166.412 24.0127 165.994 24.2491 165.46L41.3913 126.634C41.7836 125.746 41.9035 124.761 41.7358 123.804C41.568 122.848 41.1202 121.962 40.4489 121.26C39.7776 120.558 38.913 120.07 37.9644 119.859C37.0159 119.648 36.026 119.723 35.1199 120.074H35.1199C34.0731 120.473 33.1971 121.223 32.641 122.195C32.5525 122.349 32.4723 122.507 32.4007 122.67L15.2585 161.495C15.1417 161.76 15.0782 162.045 15.0716 162.334C15.0649 162.623 15.1154 162.911 15.22 163.18C15.3246 163.45 15.4813 163.696 15.6812 163.905C15.8811 164.115 16.1202 164.282 16.385 164.399L21.344 166.585Z" fill="url(#paint1_linear_216_3115)"/>
<path d="M40.6875 142.574L23.7318 138.808L27.9285 127.713C28.6435 125.001 30.3073 122.635 32.6182 121.045C34.9291 119.454 37.734 118.743 40.5242 119.042L40.6876 119.06L40.6875 142.574Z" fill="#2F2E41"/>
<path d="M74.9354 167.141C74.4367 167.14 73.9489 166.995 73.5311 166.723C73.1132 166.451 72.7831 166.063 72.5808 165.608L55.4387 126.782C54.8936 125.547 54.8429 124.15 55.2971 122.878C55.7513 121.607 56.6759 120.557 57.8807 119.946C59.0854 119.335 60.4787 119.209 61.7738 119.593C63.0689 119.978 64.1674 120.843 64.8433 122.012V122.012C64.9383 122.177 65.0244 122.347 65.1013 122.522L82.2434 161.347C82.5186 161.971 82.5348 162.678 82.2883 163.313C82.0419 163.948 81.553 164.46 80.9292 164.735L75.8022 166.995L75.7996 166.99C75.5224 167.09 75.2301 167.141 74.9354 167.141Z" fill="url(#paint2_linear_216_3115)"/>
<path d="M51.2235 153.808C50.6393 153.809 50.0792 154.041 49.6662 154.454C49.2531 154.867 49.0207 155.426 49.0201 156.01V201.156C49.0207 201.739 49.2531 202.299 49.6662 202.712C50.0792 203.125 50.6393 203.357 51.2235 203.357H56.6436C57.2278 203.357 57.7879 203.125 58.2009 202.712C58.614 202.299 58.8464 201.739 58.847 201.156V156.01C58.8464 155.426 58.614 154.867 58.2009 154.454C57.7879 154.041 57.2278 153.809 56.6436 153.808H51.2235Z" fill="url(#paint3_linear_216_3115)"/>
<path d="M40.5031 153.808C39.919 153.809 39.3589 154.041 38.9458 154.454C38.5327 154.867 38.3004 155.426 38.2997 156.01V201.156C38.3004 201.739 38.5327 202.299 38.9458 202.712C39.3589 203.125 39.919 203.357 40.5031 203.357H45.9234C46.5076 203.357 47.0676 203.125 47.4807 202.712C47.8938 202.299 48.1261 201.739 48.1268 201.156V156.01C48.1261 155.426 47.8938 154.867 47.4807 154.454C47.0676 154.041 46.5076 153.809 45.9234 153.808H40.5031Z" fill="url(#paint4_linear_216_3115)"/>
<path d="M48.4115 106.511C58.7551 106.511 67.1403 98.1308 67.1403 87.7938C67.1403 77.4569 58.7551 69.0771 48.4115 69.0771C38.0679 69.0771 29.6827 77.4569 29.6827 87.7938C29.6827 98.1308 38.0679 106.511 48.4115 106.511Z" fill="url(#paint5_linear_216_3115)"/>
<path d="M54.644 95.6508C55.8581 95.6171 57.369 95.575 58.533 94.7253C58.8796 94.4619 59.1644 94.1259 59.3674 93.7409C59.5704 93.3559 59.6867 92.9312 59.7082 92.4966C59.7292 92.1877 59.6785 91.8781 59.56 91.5921C59.4415 91.306 59.2584 91.0513 59.025 90.8476C58.417 90.3342 57.5293 90.2138 56.5725 90.4948L57.5638 83.2556L56.8361 83.156L55.6708 91.6666L56.2785 91.3879C56.9829 91.065 57.95 90.9007 58.5509 91.4082C58.6985 91.5409 58.8134 91.7058 58.8868 91.8901C58.9603 92.0744 58.9901 92.2731 58.9742 92.4708C58.9564 92.7943 58.8691 93.1102 58.7182 93.3969C58.5673 93.6836 58.3564 93.9345 58.0997 94.1325C57.1939 94.7937 55.9896 94.879 54.6236 94.9172L54.644 95.6508Z" fill="#2F2E41"/>
<path d="M65.118 83.8799H61.1624V84.6139H65.118V83.8799Z" fill="#2F2E41"/>
<path d="M52.6322 83.8799H48.6765V84.6139H52.6322V83.8799Z" fill="#2F2E41"/>
<path d="M66.969 167.369L60.2281 118.192C60.1558 117.664 59.8948 117.181 59.4935 116.831C59.0921 116.481 58.5775 116.288 58.0449 116.288H52.9568C52.978 116.167 52.989 116.044 52.9898 115.921V114.086C52.9898 113.502 52.7576 112.942 52.3444 112.529C51.9312 112.117 51.3708 111.885 50.7864 111.885H46.3796C45.7953 111.885 45.2348 112.117 44.8216 112.529C44.4084 112.942 44.1762 113.502 44.1762 114.086V115.921C44.177 116.044 44.188 116.167 44.2092 116.288H39.1211C38.5885 116.288 38.0739 116.481 37.6726 116.831C37.2712 117.181 37.0103 117.664 36.9379 118.192L30.197 167.369C30.1543 167.68 30.1789 167.997 30.269 168.298C30.3592 168.6 30.5128 168.878 30.7196 169.115C30.9264 169.352 31.1816 169.542 31.468 169.672C31.7544 169.802 32.0654 169.87 32.38 169.87H64.786C65.1006 169.87 65.4116 169.802 65.698 169.672C65.9844 169.542 66.2396 169.352 66.4464 169.115C66.6532 168.878 66.8068 168.6 66.897 168.299C66.9871 167.997 67.0117 167.68 66.969 167.369Z" fill="#2F2E41"/>
<path d="M56.4785 142.574V119.06L56.6419 119.042C59.4355 118.744 62.2435 119.456 64.5559 121.051C66.8683 122.646 68.5316 125.017 69.2436 127.733L73.4342 138.808L56.4785 142.574Z" fill="#2F2E41"/>
<path d="M47.4684 107.095L34.5141 102.07C32.3958 101.248 30.2657 100.451 28.1586 99.6015C27.256 99.2871 26.4246 98.7975 25.7123 98.1606C25.0921 97.5045 24.6694 96.687 24.4927 95.8019C24.0434 93.9041 24.1246 91.8292 24.1566 89.8924C24.1815 87.7737 24.356 85.6594 24.6787 83.5652C25.2445 79.6299 26.573 75.8427 28.5899 72.4158C32.2228 66.4589 38.482 61.9771 45.6819 62.3348C49.0151 62.5004 52.3676 63.6957 54.8441 65.9732C55.1024 66.2817 55.3923 66.5624 55.7089 66.8108C55.9291 66.8933 56.1686 66.9094 56.3977 66.857C56.7 66.8376 57.0024 66.8228 57.3051 66.8126C58.3555 66.7683 59.4077 66.8124 60.4507 66.9444C62.3513 67.1496 64.1527 67.8971 65.6398 69.0977C66.8774 70.1616 67.8844 71.6636 67.988 73.3327C68.0381 74.099 67.9113 74.8665 67.6175 75.576C67.3237 76.2855 66.8707 76.9181 66.2935 77.4249C64.748 78.7266 62.5429 78.2691 60.6891 78.171L53.8976 77.8114L50.4565 77.6292C49.748 77.5917 49.7501 78.6928 50.4565 78.7302L59.6024 79.2144C61.0722 79.2922 62.5869 79.4829 64.0578 79.3949C65.188 79.3437 66.2672 78.9098 67.118 78.1646C67.8951 77.4512 68.4739 76.5489 68.798 75.5454C69.1222 74.542 69.1806 73.4718 68.9676 72.439C68.4961 70.1866 66.8187 68.3233 64.8522 67.2148C62.1765 65.7066 58.9809 65.562 55.987 65.785L56.3765 65.9463C52.9898 62.3137 47.8021 60.78 42.932 61.3167C37.7899 61.8834 33.2165 64.7502 29.9305 68.6704C26.2669 73.041 24.2704 78.4909 23.4942 84.095C23.0903 87.1207 22.9573 90.1764 23.0969 93.2257C23.0911 94.5706 23.3214 95.906 23.7771 97.1713C24.2971 98.4028 25.2372 99.4101 26.4304 100.014C27.7983 100.674 29.2046 101.251 30.6417 101.743L35.4144 103.594L44.7892 107.231L47.1755 108.156C47.8368 108.413 48.1233 107.349 47.4684 107.095Z" fill="#2F2E41"/>
<path d="M27.1 69.6803C25.9742 69.6803 24.8737 69.3467 23.9376 68.7216C23.0016 68.0966 22.272 67.2082 21.8412 66.1687C21.4104 65.1293 21.2976 63.9856 21.5173 62.8821C21.7369 61.7787 22.279 60.7651 23.0751 59.9696C23.8711 59.174 24.8854 58.6323 25.9895 58.4128C27.0937 58.1933 28.2382 58.3059 29.2783 58.7365C30.3183 59.167 31.2073 59.8961 31.8328 60.8316C32.4582 61.767 32.7921 62.8668 32.7921 63.9919C32.7904 65.5 32.1901 66.9459 31.123 68.0123C30.0559 69.0787 28.6091 69.6786 27.1 69.6803ZM27.1 59.4045C26.1921 59.4045 25.3046 59.6735 24.5497 60.1776C23.7948 60.6816 23.2065 61.3981 22.859 62.2363C22.5116 63.0746 22.4207 63.997 22.5978 64.8868C22.7749 65.7767 23.2121 66.5941 23.8541 67.2357C24.4961 67.8772 25.314 68.3142 26.2045 68.4912C27.0949 68.6682 28.0179 68.5773 28.8567 68.2301C29.6954 67.8829 30.4124 67.2949 30.9168 66.5405C31.4212 65.7861 31.6904 64.8992 31.6904 63.9919C31.689 62.7756 31.2049 61.6096 30.3444 60.7496C29.4838 59.8896 28.317 59.4058 27.1 59.4045Z" fill="#2F2E41"/>
<path d="M122.251 104.932L109.931 95.5151L100.508 107.827L112.828 117.244L122.251 104.932Z" fill="#F0F0F0"/>
<path d="M52.6226 20.87C54.5692 20.8685 56.4891 21.3225 58.2286 22.1957C59.968 23.0689 61.4787 24.3371 62.6397 25.8986L69.8337 16.4985L48.2482 0L31.7391 21.5715L41.0424 28.6824C41.9734 26.3749 43.5733 24.3982 45.6368 23.0061C47.7002 21.614 50.133 20.8702 52.6226 20.87Z" fill="#F0F0F0"/>
<path d="M259.633 204H0.367232C0.269836 204 0.176429 203.961 0.107559 203.893C0.0386901 203.824 0 203.73 0 203.633C0 203.536 0.0386901 203.442 0.107559 203.374C0.176429 203.305 0.269836 203.266 0.367232 203.266H259.633C259.73 203.266 259.824 203.305 259.892 203.374C259.961 203.442 260 203.536 260 203.633C260 203.73 259.961 203.824 259.892 203.893C259.824 203.961 259.73 204 259.633 204Z" fill="#3F3D56"/>
<path d="M196.354 143.104H169.964C168.991 143.103 168.057 142.716 167.369 142.028C166.68 141.34 166.293 140.407 166.292 139.434V137.608C166.293 136.635 166.68 135.702 167.369 135.014C168.057 134.326 168.991 133.939 169.964 133.938H196.354C197.328 133.939 198.261 134.326 198.95 135.014C199.638 135.702 200.025 136.635 200.026 137.608V139.434C200.025 140.407 199.638 141.34 198.95 142.028C198.261 142.716 197.328 143.103 196.354 143.104Z" fill="url(#paint6_linear_216_3115)"/>
<path d="M199.135 139.583H172.745C171.722 139.582 170.742 139.175 170.019 138.453C169.297 137.731 168.89 136.751 168.889 135.729V133.903C168.89 132.881 169.297 131.902 170.019 131.179C170.742 130.457 171.722 130.05 172.745 130.049H199.135C200.157 130.05 201.137 130.457 201.86 131.179C202.583 131.902 202.99 132.881 202.991 133.903V135.729C202.99 136.751 202.583 137.731 201.86 138.453C201.137 139.175 200.157 139.582 199.135 139.583ZM172.745 130.783C171.917 130.784 171.124 131.113 170.539 131.698C169.953 132.283 169.624 133.076 169.623 133.903V135.729C169.624 136.557 169.953 137.349 170.539 137.934C171.124 138.519 171.917 138.848 172.745 138.849H199.135C199.962 138.848 200.756 138.519 201.341 137.934C201.926 137.349 202.255 136.557 202.256 135.729V133.903C202.255 133.076 201.926 132.283 201.341 131.698C200.756 131.113 199.962 130.784 199.135 130.783H172.745Z" fill="#3F3D56"/>
</g>
<defs>
<linearGradient id="paint0_linear_216_3115" x1="146.549" y1="168.857" x2="177.938" y2="177.71" gradientUnits="userSpaceOnUse">
<stop stop-color="#F76B1C"/>
<stop offset="1" stop-color="#FAD961"/>
</linearGradient>
<linearGradient id="paint1_linear_216_3115" x1="18.1549" y1="119.742" x2="45.8629" y2="123.977" gradientUnits="userSpaceOnUse">
<stop stop-color="#F76B1C"/>
<stop offset="1" stop-color="#FAD961"/>
</linearGradient>
<linearGradient id="paint2_linear_216_3115" x1="58.1582" y1="119.375" x2="86.6116" y2="123.775" gradientUnits="userSpaceOnUse">
<stop stop-color="#F76B1C"/>
<stop offset="1" stop-color="#FAD961"/>
</linearGradient>
<linearGradient id="paint3_linear_216_3115" x1="50.1535" y1="153.808" x2="60.5451" y2="154.362" gradientUnits="userSpaceOnUse">
<stop stop-color="#F76B1C"/>
<stop offset="1" stop-color="#FAD961"/>
</linearGradient>
<linearGradient id="paint4_linear_216_3115" x1="39.4331" y1="153.808" x2="49.8249" y2="154.362" gradientUnits="userSpaceOnUse">
<stop stop-color="#F76B1C"/>
<stop offset="1" stop-color="#FAD961"/>
</linearGradient>
<linearGradient id="paint5_linear_216_3115" x1="34.0028" y1="69.0771" x2="71.0445" y2="79.0426" gradientUnits="userSpaceOnUse">
<stop stop-color="#F76B1C"/>
<stop offset="1" stop-color="#FAD961"/>
</linearGradient>
<linearGradient id="paint6_linear_216_3115" x1="170.183" y1="133.938" x2="188.26" y2="151.824" gradientUnits="userSpaceOnUse">
<stop stop-color="#F76B1C"/>
<stop offset="1" stop-color="#FAD961"/>
</linearGradient>
<clipPath id="clip0_216_3115">
<rect width="260" height="204" fill="white"/>
</clipPath>
</defs>
</svg>
