<svg width="266" height="177" viewBox="0 0 266 177" fill="none" xmlns="http://www.w3.org/2000/svg">
<g clip-path="url(#clip0_216_3062)">
<path d="M95.4143 101.865C104.53 85.8088 121.919 73.4803 140.326 74.668C126.748 89.452 118.831 108.568 117.975 128.635C117.672 136.375 118.141 145.015 113.008 150.81C109.815 154.417 104.933 156.163 100.134 156.53C95.3342 156.896 90.5356 156.028 85.8 155.163L84.6513 155.516C84.2139 137.052 86.2984 117.921 95.4143 101.865Z" fill="#F0F0F0"/>
<path d="M140.354 75.0547C126.742 81.6158 115.135 92.5737 108.01 105.938C106.469 108.827 105.158 111.892 104.586 115.133C104.013 118.375 104.413 121.462 105.519 124.541C106.53 127.356 107.89 130.119 108.2 133.131C108.527 136.306 107.36 139.275 105.26 141.631C102.69 144.514 99.2392 146.301 95.8037 147.93C91.9892 149.74 87.9985 151.558 85.2968 154.935C84.9694 155.344 84.3545 154.812 84.6814 154.403C89.3819 148.528 97.4281 147.424 103.008 142.691C105.611 140.483 107.566 137.475 107.442 133.952C107.335 130.87 105.935 128.02 104.886 125.179C103.785 122.195 103.237 119.195 103.631 116.014C104.035 112.759 105.23 109.636 106.69 106.72C109.982 100.144 114.488 94.1065 119.649 88.8874C125.581 82.8883 132.495 77.9493 140.09 74.2844C140.561 74.0577 140.821 74.8295 140.354 75.0547Z" fill="white"/>
<path d="M110.097 101.471C108.01 99.9435 106.534 97.7227 105.931 95.2056C105.329 92.6885 105.64 90.0389 106.808 87.7301C107.046 87.2637 107.781 87.6122 107.543 88.0791C106.451 90.2271 106.161 92.6953 106.727 95.0381C107.293 97.3808 108.677 99.444 110.628 100.855C111.052 101.162 110.518 101.777 110.097 101.471Z" fill="white"/>
<path d="M104.819 123.181C110.048 122.416 114.797 119.706 118.119 115.591C118.447 115.183 119.062 115.715 118.734 116.123C115.269 120.399 110.321 123.209 104.878 123.993C104.36 124.067 104.303 123.255 104.819 123.181V123.181Z" fill="white"/>
<path d="M125.983 83.8898C126.667 84.6494 127.53 85.2269 128.492 85.5705C129.454 85.914 130.487 86.0128 131.497 85.8581C132.015 85.7771 132.071 86.5895 131.556 86.6699C130.44 86.8357 129.3 86.7251 128.235 86.3479C127.171 85.9707 126.216 85.3383 125.452 84.506C125.373 84.4336 125.325 84.334 125.317 84.2273C125.31 84.1207 125.343 84.0151 125.41 83.932C125.481 83.8507 125.58 83.8007 125.688 83.7928C125.795 83.785 125.901 83.8198 125.983 83.8898Z" fill="white"/>
<path d="M176.951 125.319C176.63 125.379 176.308 125.439 175.983 125.505C171.661 126.33 167.413 127.506 163.281 129.021C162.959 129.133 162.635 129.251 162.318 129.372C152.402 133.127 143.268 138.692 135.381 145.786C132.245 148.611 129.328 151.671 126.656 154.94C122.966 159.454 119.324 164.643 114.502 167.586C114.002 167.899 113.483 168.18 112.949 168.429L85.1706 156.892C85.1206 156.834 85.0677 156.782 85.0174 156.724L83.8872 156.314C84.0133 156.136 84.1479 155.954 84.2739 155.776C84.3466 155.672 84.4255 155.571 84.4982 155.467C84.5486 155.399 84.5994 155.331 84.641 155.266C84.6577 155.244 84.6747 155.221 84.6888 155.204C84.7304 155.14 84.7758 155.084 84.8148 155.026C85.5642 154.006 86.322 152.99 87.0883 151.976C87.091 151.97 87.091 151.97 87.0998 151.966C92.9584 144.262 99.5107 136.98 106.959 130.925C107.183 130.743 107.409 130.554 107.646 130.377C111.019 127.667 114.606 125.236 118.374 123.111C120.441 121.954 122.565 120.902 124.738 119.96C130.358 117.537 136.323 116.013 142.415 115.446C154.56 114.317 166.931 117.089 176.245 124.729C176.484 124.924 176.716 125.118 176.951 125.319Z" fill="#F0F0F0"/>
<path d="M176.743 125.646C161.929 122.679 146.073 124.432 132.348 130.807C129.381 132.185 126.49 133.842 124.085 136.085C121.678 138.328 120.142 141.034 119.173 144.159C118.287 147.017 117.712 150.042 116.148 152.634C114.5 155.366 111.783 157.033 108.689 157.649C104.904 158.401 101.074 157.747 97.3515 156.977C93.2179 156.123 88.9379 155.169 84.7502 156.237C84.2428 156.366 84.072 155.57 84.5786 155.441C91.8645 153.584 98.953 157.552 106.254 157.137C109.66 156.943 113.029 155.72 115.05 152.832C116.817 150.307 117.413 147.188 118.284 144.287C119.199 141.241 120.565 138.514 122.793 136.212C125.072 133.858 127.904 132.084 130.823 130.636C137.406 127.37 144.634 125.266 151.894 124.21C160.238 122.996 168.727 123.22 176.996 124.873C177.507 124.975 177.251 125.748 176.743 125.646V125.646Z" fill="white"/>
<path d="M136.7 128.499C135.952 126.021 136.109 123.358 137.141 120.985C138.174 118.612 140.015 116.684 142.337 115.545C142.807 115.316 143.184 116.037 142.713 116.266C140.55 117.323 138.835 119.119 137.878 121.331C136.921 123.543 136.785 126.024 137.495 128.327C137.648 128.828 136.853 128.997 136.7 128.499Z" fill="white"/>
<path d="M119.431 142.651C124.066 145.193 129.488 145.892 134.615 144.608C135.122 144.481 135.293 145.277 134.786 145.404C129.449 146.729 123.808 145.991 118.991 143.335C118.532 143.082 118.975 142.399 119.431 142.651Z" fill="white"/>
<path d="M159.956 124.038C160.046 125.057 160.387 126.038 160.949 126.892C161.51 127.747 162.275 128.448 163.175 128.933C163.637 129.181 163.193 129.863 162.734 129.617C161.743 129.077 160.899 128.301 160.276 127.358C159.653 126.416 159.271 125.335 159.161 124.21C159.142 124.104 159.164 123.996 159.221 123.906C159.279 123.816 159.369 123.752 159.473 123.726C159.578 123.704 159.688 123.724 159.778 123.782C159.869 123.841 159.933 123.933 159.956 124.038Z" fill="white"/>
<path d="M124.035 144.353C120.145 125.519 115.282 119.239 115.282 119.239L113.424 117.797L111.19 116.059L111.201 115.836L110.671 115.656L110.547 115.559L110.343 115.402L110.31 115.437L110.241 115.509L100.131 112.068L87.3055 107.706L81.3664 99.9768C80.3992 98.7179 79.1539 97.7005 77.7282 97.0042C76.3025 96.3079 74.7351 95.9517 73.1488 95.9634L54.1813 96.1039C51.6167 96.1229 49.1519 97.1019 47.2716 98.8482L34.8046 110.427L15.3785 119.717L15.3457 119.684L15.1417 119.83L12.1402 121.267L12.2641 121.912L10.4063 123.254C10.4063 123.254 5.54346 129.097 1.65314 146.622C0.663485 151.081 0.176342 160.647 0.000509385 172.434C-0.00832267 173.03 0.101323 173.622 0.323069 174.176C0.544814 174.729 0.874237 175.233 1.29218 175.658C1.71013 176.083 2.20826 176.42 2.75761 176.651C3.30696 176.881 3.89657 177 4.49215 177H108.251V177H121.201C121.796 177 122.385 176.881 122.934 176.651C123.483 176.421 123.981 176.084 124.399 175.659C124.817 175.235 125.146 174.732 125.368 174.179C125.591 173.626 125.701 173.035 125.693 172.439C125.521 159.612 125.034 149.189 124.035 144.353Z" fill="#3F3D56"/>
<path d="M137.348 16.425C133.311 16.425 129.44 18.0307 126.585 20.8888C123.731 23.7469 122.127 27.6232 122.127 31.6652C122.127 35.7071 123.731 39.5835 126.585 42.4416C129.44 45.2997 133.311 46.9053 137.348 46.9053H250.779C254.816 46.9053 258.687 45.2997 261.542 42.4416C264.396 39.5835 266 35.7071 266 31.6652C266 27.6232 264.396 23.7469 261.542 20.8888C258.687 18.0307 254.816 16.425 250.779 16.425H137.348Z" fill="url(#paint0_linear_216_3062)"/>
<path d="M137.348 19.5093C134.128 19.5093 131.04 20.79 128.763 23.0696C126.487 25.3493 125.208 28.4412 125.208 31.6651C125.208 34.889 126.487 37.9809 128.763 40.2606C131.04 42.5402 134.128 43.8209 137.348 43.8209H250.779C253.999 43.8209 257.087 42.5402 259.364 40.2606C261.64 37.9809 262.92 34.889 262.92 31.6651C262.92 28.4412 261.64 25.3493 259.364 23.0696C257.087 20.79 253.999 19.5093 250.779 19.5093H137.348Z" fill="white"/>
<path d="M66.6437 88.8286C80.3676 88.8286 91.493 77.689 91.493 63.9477C91.493 50.2064 80.3676 39.0669 66.6437 39.0669C52.9199 39.0669 41.7945 50.2064 41.7945 63.9477C41.7945 77.689 52.9199 88.8286 66.6437 88.8286Z" fill="#9E616A"/>
<path d="M60.2868 87.6103C60.1806 87.3762 60.0748 87.1414 59.9692 86.9058C60.0099 86.9071 60.0502 86.9129 60.0908 86.914L60.2868 87.6103Z" fill="#2F2E41"/>
<path d="M41.1034 40.1985C42.3602 39.1946 43.8291 38.2709 45.436 38.3229C47.0429 38.3747 48.6723 39.8278 48.3394 41.4027C51.2909 36.1702 55.9888 32.1458 61.6084 30.0359C67.228 27.9261 73.4103 27.8655 79.0701 29.8649C83.0639 31.2757 86.9803 34.0981 87.8977 38.2378C88.1332 39.3004 88.1838 40.4656 88.8464 41.3286C89.682 42.4165 91.2806 42.6626 92.5969 42.2799C92.61 42.2761 92.6232 42.2722 92.6363 42.2683C92.8587 42.1922 93.0987 42.1848 93.3254 42.2468C93.552 42.3089 93.7549 42.4376 93.9077 42.6163C94.0605 42.7951 94.1562 43.0156 94.1825 43.2494C94.2087 43.4832 94.1643 43.7195 94.055 43.9278L92.9249 46.0379C94.3494 46.3559 95.8295 46.3243 97.2392 45.9461C97.4734 45.8846 97.7208 45.8971 97.9476 45.982C98.1743 46.0669 98.3693 46.2199 98.5058 46.4202C98.6422 46.6204 98.7135 46.858 98.7097 47.1003C98.706 47.3427 98.6274 47.578 98.4849 47.7739C94.7588 52.8961 88.5337 56.2038 82.1812 56.1649C77.6662 56.1373 73.1047 54.5793 68.7106 55.6189C67.0107 56.021 65.4223 56.7992 64.0619 57.8962C62.7015 58.9932 61.6036 60.3813 60.8489 61.9585C60.0942 63.5358 59.7017 65.2622 59.7002 67.0111C59.6988 68.76 60.0884 70.4871 60.8405 72.0656C59.4907 70.5872 56.8812 70.9373 55.5003 72.3868C54.1196 73.8363 53.7621 75.9997 53.9012 77.998C54.114 81.0544 55.3099 83.9343 56.5707 86.7372C46.0001 86.404 36.0021 78.9795 32.6367 68.9376C29.2572 58.8537 32.799 46.8315 41.1034 40.1985Z" fill="#2F2E41"/>
<path opacity="0.2" d="M24.4581 138.667L31.4278 176.635L35.6097 177L24.4581 138.667Z" fill="black"/>
<path opacity="0.2" d="M101.23 135.803L94.2607 176.608L90.0787 177L101.23 135.803Z" fill="black"/>
<path d="M47.048 27.4201C45.7117 27.9789 44.3173 27.3666 43.7325 25.9643C43.1387 24.5406 43.6933 23.0954 45.051 22.5277C46.4089 21.96 47.7785 22.5738 48.3818 24.0204C48.976 25.4454 48.4275 26.8434 47.048 27.4201ZM44.4881 19.7254L43.4256 20.1697C43.1602 20.2793 42.8633 20.2852 42.5937 20.1862C42.3241 20.0872 42.1015 19.8905 41.9698 19.635L41.9172 19.5321C40.774 17.4676 40.6431 14.9585 41.5302 12.0785C42.3521 9.4949 42.6934 7.67789 42.0069 6.03178C41.2132 4.12856 39.5184 3.53237 37.357 4.39602C36.5188 4.74649 36.252 4.7409 35.5924 5.39614C35.4489 5.54041 35.2778 5.65426 35.0894 5.73091C34.901 5.80756 34.6992 5.84544 34.4958 5.84229C34.2993 5.83998 34.1052 5.79805 33.9252 5.71902C33.7452 5.63998 33.5829 5.52545 33.448 5.38227C33.1882 5.10633 33.0426 4.74194 33.0407 4.36271C33.0388 3.98347 33.1807 3.61763 33.4377 3.33908C34.5465 2.1769 35.8839 1.25747 37.3654 0.638806C42.0092 -1.30274 44.3469 1.56367 45.4167 4.12884C46.463 6.63786 45.8744 8.96582 44.9287 11.9808C44.1361 14.486 44.1823 16.3423 45.0826 18.1881C45.1476 18.3276 45.1837 18.4789 45.1889 18.6328C45.194 18.7867 45.1681 18.94 45.1126 19.0836C45.0571 19.2272 44.9731 19.358 44.8658 19.4683C44.7585 19.5786 44.6301 19.6661 44.4882 19.7254L44.4881 19.7254Z" fill="url(#paint1_linear_216_3062)"/>
<path d="M162.403 38.9336H139.835C139.763 38.9341 139.692 38.9203 139.626 38.8932C139.559 38.8661 139.499 38.8261 139.448 38.7755C139.397 38.7249 139.357 38.6647 139.329 38.5984C139.302 38.5321 139.288 38.4611 139.288 38.3893C139.288 38.3175 139.302 38.2464 139.329 38.1801C139.357 38.1138 139.397 38.0537 139.448 38.0031C139.499 37.9525 139.559 37.9125 139.626 37.8853C139.692 37.8582 139.763 37.8445 139.835 37.845H162.403C162.547 37.846 162.684 37.9037 162.785 38.0057C162.887 38.1077 162.943 38.2456 162.943 38.3893C162.943 38.533 162.887 38.6709 162.785 38.7728C162.684 38.8748 162.547 38.9326 162.403 38.9336Z" fill="url(#paint2_linear_216_3062)"/>
<path d="M191.033 39.115H168.464C168.393 39.1154 168.322 39.1017 168.255 39.0746C168.189 39.0475 168.129 39.0074 168.078 38.9569C168.027 38.9063 167.986 38.8461 167.959 38.7798C167.931 38.7135 167.917 38.6425 167.917 38.5707C167.917 38.4989 167.931 38.4278 167.959 38.3615C167.986 38.2952 168.027 38.2351 168.078 38.1845C168.129 38.1339 168.189 38.0939 168.255 38.0667C168.322 38.0396 168.393 38.0259 168.464 38.0264H191.033C191.105 38.0259 191.176 38.0396 191.242 38.0667C191.309 38.0939 191.369 38.1339 191.42 38.1845C191.471 38.2351 191.511 38.2952 191.539 38.3615C191.566 38.4278 191.58 38.4989 191.58 38.5707C191.58 38.6425 191.566 38.7135 191.539 38.7798C191.511 38.8461 191.471 38.9063 191.42 38.9569C191.369 39.0074 191.309 39.0475 191.242 39.0746C191.176 39.1017 191.105 39.1154 191.033 39.115Z" fill="url(#paint3_linear_216_3062)"/>
<path d="M219.663 39.2964H197.094C196.951 39.2954 196.813 39.2376 196.712 39.1356C196.611 39.0337 196.554 38.8958 196.554 38.7521C196.554 38.6083 196.611 38.4705 196.712 38.3685C196.813 38.2665 196.951 38.2088 197.094 38.2078H219.663C219.734 38.2073 219.805 38.221 219.872 38.2481C219.938 38.2753 219.999 38.3153 220.049 38.3659C220.1 38.4165 220.141 38.4766 220.168 38.5429C220.196 38.6092 220.21 38.6803 220.21 38.7521C220.21 38.8239 220.196 38.8949 220.168 38.9612C220.141 39.0275 220.1 39.0877 220.049 39.1383C219.999 39.1888 219.938 39.2289 219.872 39.256C219.805 39.2831 219.734 39.2968 219.663 39.2964H219.663Z" fill="url(#paint4_linear_216_3062)"/>
<path d="M248.292 39.4777H225.724C225.58 39.4768 225.443 39.419 225.342 39.317C225.241 39.215 225.184 39.0772 225.184 38.9334C225.184 38.7897 225.241 38.6518 225.342 38.5499C225.443 38.4479 225.58 38.3901 225.724 38.3892H248.292C248.436 38.3901 248.573 38.4479 248.674 38.5499C248.775 38.6518 248.832 38.7897 248.832 38.9334C248.832 39.0772 248.775 39.215 248.674 39.317C248.573 39.419 248.436 39.4768 248.292 39.4777Z" fill="url(#paint5_linear_216_3062)"/>
<path d="M151.069 33.9244C153.386 33.9244 155.264 32.0441 155.264 29.7245C155.264 27.405 153.386 25.5247 151.069 25.5247C148.753 25.5247 146.875 27.405 146.875 29.7245C146.875 32.0441 148.753 33.9244 151.069 33.9244Z" fill="url(#paint6_linear_216_3062)"/>
<path d="M179.872 33.9244C182.189 33.9244 184.067 32.0441 184.067 29.7245C184.067 27.405 182.189 25.5247 179.872 25.5247C177.555 25.5247 175.677 27.405 175.677 29.7245C175.677 32.0441 177.555 33.9244 179.872 33.9244Z" fill="url(#paint7_linear_216_3062)"/>
<path d="M208.675 33.9244C210.991 33.9244 212.869 32.0441 212.869 29.7245C212.869 27.405 210.991 25.5247 208.675 25.5247C206.358 25.5247 204.48 27.405 204.48 29.7245C204.48 32.0441 206.358 33.9244 208.675 33.9244Z" fill="url(#paint8_linear_216_3062)"/>
<path d="M237.477 33.9244C239.794 33.9244 241.672 32.0441 241.672 29.7245C241.672 27.405 239.794 25.5247 237.477 25.5247C235.161 25.5247 233.283 27.405 233.283 29.7245C233.283 32.0441 235.161 33.9244 237.477 33.9244Z" fill="url(#paint9_linear_216_3062)"/>
</g>
<defs>
<linearGradient id="paint0_linear_216_3062" x1="138.721" y1="16.425" x2="197.166" y2="90.5959" gradientUnits="userSpaceOnUse">
<stop stop-color="#F76B1C"/>
<stop offset="1" stop-color="#FAD961"/>
</linearGradient>
<linearGradient id="paint1_linear_216_3062" x1="34.8374" y1="-2.68036e-06" x2="50.9869" y2="2.4485" gradientUnits="userSpaceOnUse">
<stop stop-color="#F76B1C"/>
<stop offset="1" stop-color="#FAD961"/>
</linearGradient>
<linearGradient id="paint2_linear_216_3062" x1="142.016" y1="37.845" x2="142.73" y2="42.0166" gradientUnits="userSpaceOnUse">
<stop stop-color="#F76B1C"/>
<stop offset="1" stop-color="#FAD961"/>
</linearGradient>
<linearGradient id="paint3_linear_216_3062" x1="170.646" y1="38.0264" x2="171.36" y2="42.1981" gradientUnits="userSpaceOnUse">
<stop stop-color="#F76B1C"/>
<stop offset="1" stop-color="#FAD961"/>
</linearGradient>
<linearGradient id="paint4_linear_216_3062" x1="199.282" y1="38.2078" x2="199.996" y2="42.3794" gradientUnits="userSpaceOnUse">
<stop stop-color="#F76B1C"/>
<stop offset="1" stop-color="#FAD961"/>
</linearGradient>
<linearGradient id="paint5_linear_216_3062" x1="227.911" y1="38.3892" x2="228.625" y2="42.5606" gradientUnits="userSpaceOnUse">
<stop stop-color="#F76B1C"/>
<stop offset="1" stop-color="#FAD961"/>
</linearGradient>
<linearGradient id="paint6_linear_216_3062" x1="147.842" y1="25.5247" x2="156.141" y2="27.7528" gradientUnits="userSpaceOnUse">
<stop stop-color="#F76B1C"/>
<stop offset="1" stop-color="#FAD961"/>
</linearGradient>
<linearGradient id="paint7_linear_216_3062" x1="176.645" y1="25.5247" x2="184.943" y2="27.7528" gradientUnits="userSpaceOnUse">
<stop stop-color="#F76B1C"/>
<stop offset="1" stop-color="#FAD961"/>
</linearGradient>
<linearGradient id="paint8_linear_216_3062" x1="205.448" y1="25.5247" x2="213.746" y2="27.7528" gradientUnits="userSpaceOnUse">
<stop stop-color="#F76B1C"/>
<stop offset="1" stop-color="#FAD961"/>
</linearGradient>
<linearGradient id="paint9_linear_216_3062" x1="234.25" y1="25.5247" x2="242.548" y2="27.7528" gradientUnits="userSpaceOnUse">
<stop stop-color="#F76B1C"/>
<stop offset="1" stop-color="#FAD961"/>
</linearGradient>
<clipPath id="clip0_216_3062">
<rect width="266" height="177" fill="white"/>
</clipPath>
</defs>
</svg>
