<svg width="300" height="214" viewBox="0 0 300 214" fill="none" xmlns="http://www.w3.org/2000/svg">
<path d="M271.319 131.175C272.93 160.815 214.908 221.083 143.392 198.776C110.131 188.4 112.948 171.179 87.6559 148.482C72.5808 134.955 50.92 124.725 44.8957 105.062C39.6913 88.0902 42.8828 69.8475 51.9055 57.9819C72.1974 31.2967 113.163 13.0238 153.527 55.0686C193.891 97.1129 267.157 54.7332 271.319 131.175Z" fill="url(#paint0_linear_509_1154)"/>
<path d="M255.414 65.8416C249.77 75.9008 237.41 77.283 217.609 75.3711C202.716 73.9311 189.136 72.8165 174.242 64.7068C163.818 59.0347 155.566 51.3601 149.543 43.9065C143.017 35.8317 133.908 26.6165 138.373 17.4609C144.51 4.88427 179.999 -5.70796 214.461 11.614C252.317 30.6474 260.935 56.01 255.414 65.8416Z" fill="url(#paint1_linear_509_1154)"/>
<path d="M111.767 188.867C98.6196 170.497 85.1542 150.973 67.5256 141.356C49.3424 131.432 45.9888 137.548 44.7302 147.272C43.4715 156.996 49.0818 180.035 73.897 193.144C98.7182 206.256 124.07 206.06 111.767 188.867Z" fill="url(#paint2_linear_509_1154)"/>
<path d="M263.746 187.613H50.3357C44.0261 187.613 38.9091 182.503 38.9091 176.201V42.6568C38.9091 36.3554 44.0261 31.2449 50.3357 31.2449H263.746C270.056 31.2449 275.173 36.3554 275.173 42.6568V176.201C275.173 182.503 270.056 187.613 263.746 187.613Z" fill="white" stroke="#E1E4E5" stroke-width="4"/>
<path d="M275.173 42.6568C275.173 43.6116 274.793 44.5272 274.117 45.2022C273.441 45.8773 272.524 46.2565 271.568 46.2565H42.5138C41.5578 46.2565 40.641 45.8773 39.965 45.2022C39.289 44.5272 38.9092 43.6116 38.9091 42.6568C38.9091 36.3554 44.0261 31.2449 50.3357 31.2449H263.746C270.056 31.2449 275.173 36.3554 275.173 42.6568Z" fill="white" stroke="#E1E4E5" stroke-width="4"/>
<path d="M50.3586 41.925C50.7081 41.9295 51.0549 41.8646 51.3791 41.7341C51.7032 41.6036 51.9982 41.4102 52.2469 41.165C52.4956 40.9198 52.693 40.6277 52.8278 40.3056C52.9626 39.9836 53.032 39.638 53.032 39.289C53.032 38.94 52.9626 38.5944 52.8278 38.2724C52.693 37.9504 52.4956 37.6583 52.2469 37.4131C51.9982 37.1678 51.7032 36.9744 51.3791 36.8439C51.0549 36.7135 50.7081 36.6486 50.3586 36.653C49.6645 36.6619 49.0017 36.9435 48.514 37.4369C48.0263 37.9303 47.7528 38.5957 47.7528 39.289C47.7528 39.9823 48.0263 40.6477 48.514 41.1411C49.0017 41.6345 49.6645 41.9161 50.3586 41.925ZM61.3565 41.925C61.706 41.9295 62.0528 41.8646 62.377 41.7341C62.7011 41.6036 62.9961 41.4102 63.2448 41.165C63.4935 40.9198 63.6909 40.6277 63.8257 40.3056C63.9605 39.9836 64.0299 39.638 64.0299 39.289C64.0299 38.94 63.9605 38.5944 63.8257 38.2724C63.6909 37.9504 63.4935 37.6583 63.2448 37.4131C62.9961 37.1678 62.7011 36.9744 62.377 36.8439C62.0528 36.7135 61.706 36.6486 61.3565 36.653C60.6623 36.6619 59.9996 36.9435 59.5119 37.4369C59.0242 37.9303 58.7507 38.5957 58.7507 39.289C58.7507 39.9823 59.0242 40.6477 59.5119 41.1411C59.9996 41.6345 60.6623 41.9161 61.3565 41.925ZM71.9148 41.925C72.2643 41.9295 72.6111 41.8646 72.9353 41.7341C73.2594 41.6036 73.5544 41.4102 73.8031 41.165C74.0518 40.9198 74.2492 40.6277 74.384 40.3056C74.5188 39.9836 74.5882 39.638 74.5882 39.289C74.5882 38.94 74.5188 38.5944 74.384 38.2724C74.2492 37.9504 74.0518 37.6583 73.8031 37.4131C73.5544 37.1678 73.2594 36.9744 72.9353 36.8439C72.6111 36.7135 72.2643 36.6486 71.9148 36.653C71.2207 36.6619 70.558 36.9435 70.0702 37.4369C69.5825 37.9303 69.309 38.5957 69.309 39.289C69.309 39.9823 69.5825 40.6477 70.0702 41.1411C70.558 41.6345 71.2207 41.9161 71.9148 41.925Z" fill="#E1E4E5"/>
<path d="M116.755 67.3606H26.9745C24.3456 67.3606 22.2145 69.489 22.2145 72.1145V100.639C22.2145 103.265 24.3456 105.393 26.9745 105.393H116.755C119.384 105.393 121.515 103.265 121.515 100.639V72.1145C121.515 69.489 119.384 67.3606 116.755 67.3606Z" fill="url(#paint3_linear_509_1154)"/>
<path d="M109.064 79.0403H52.9991C51.7642 79.0403 50.7632 80.0399 50.7632 81.2731C50.7632 82.5062 51.7642 83.5059 52.9991 83.5059H109.064C110.299 83.5059 111.3 82.5062 111.3 81.2731C111.3 80.0399 110.299 79.0403 109.064 79.0403Z" fill="white"/>
<path d="M87.7389 89.0022H52.9991C51.7642 89.0022 50.7632 90.0018 50.7632 91.235C50.7632 92.4681 51.7642 93.4678 52.9991 93.4678H87.7389C88.9738 93.4678 89.9748 92.4681 89.9748 91.235C89.9748 90.0018 88.9738 89.0022 87.7389 89.0022Z" fill="white"/>
<path d="M38.3804 93.4683C42.3697 93.4683 45.6037 90.2385 45.6037 86.2543C45.6037 82.2701 42.3697 79.0403 38.3804 79.0403C34.3911 79.0403 31.1571 82.2701 31.1571 86.2543C31.1571 90.2385 34.3911 93.4683 38.3804 93.4683Z" fill="white"/>
<path d="M257.579 110.522H177.82C175.191 110.522 173.06 112.65 173.06 115.276V189.019C173.06 191.644 175.191 193.773 177.82 193.773H257.579C260.208 193.773 262.339 191.644 262.339 189.019V115.276C262.339 112.65 260.208 110.522 257.579 110.522Z" fill="url(#paint4_linear_509_1154)"/>
<path d="M251.145 167.424H200.738C199.628 167.424 198.728 168.323 198.728 169.432C198.728 170.54 199.628 171.439 200.738 171.439H251.145C252.255 171.439 253.155 170.54 253.155 169.432C253.155 168.323 252.255 167.424 251.145 167.424Z" fill="white"/>
<path d="M198.568 126.216V157.151C198.568 158.282 199.486 159.198 200.618 159.198H200.619C201.75 159.198 202.668 158.282 202.668 157.151V126.216C202.668 125.086 201.75 124.169 200.619 124.169H200.618C199.486 124.169 198.568 125.086 198.568 126.216Z" fill="white"/>
<path d="M216.333 126.216V157.151C216.333 158.282 217.251 159.198 218.383 159.198H218.383C219.515 159.198 220.433 158.282 220.433 157.151V126.216C220.433 125.086 219.515 124.169 218.383 124.169H218.383C217.251 124.169 216.333 125.086 216.333 126.216Z" fill="white"/>
<path d="M234.098 126.216V157.151C234.098 158.282 235.016 159.198 236.148 159.198H236.148C237.28 159.198 238.198 158.282 238.198 157.151V126.216C238.198 125.086 237.28 124.169 236.148 124.169H236.148C235.016 124.169 234.098 125.086 234.098 126.216Z" fill="white"/>
<path d="M231.971 176.381H200.738C199.628 176.381 198.728 177.28 198.728 178.389C198.728 179.497 199.628 180.396 200.738 180.396H231.971C233.082 180.396 233.982 179.497 233.982 178.389C233.982 177.28 233.082 176.381 231.971 176.381Z" fill="white"/>
<path d="M207.678 138.271V157.379C207.678 158.384 208.494 159.198 209.5 159.198H209.501C210.507 159.198 211.323 158.384 211.323 157.379V138.271C211.323 137.267 210.507 136.452 209.501 136.452H209.5C208.494 136.452 207.678 137.267 207.678 138.271Z" fill="white"/>
<path d="M225.443 138.271V157.379C225.443 158.384 226.259 159.198 227.265 159.198H227.265C228.272 159.198 229.087 158.384 229.087 157.379V138.271C229.087 137.267 228.272 136.452 227.265 136.452H227.265C226.259 136.452 225.443 137.267 225.443 138.271Z" fill="white"/>
<path d="M243.208 138.271V157.379C243.208 158.384 244.024 159.198 245.03 159.198H245.03C246.036 159.198 246.852 158.384 246.852 157.379V138.271C246.852 137.267 246.036 136.452 245.03 136.452H245.03C244.024 136.452 243.208 137.267 243.208 138.271Z" fill="white"/>
<path d="M187.595 180.396C191.181 180.396 194.089 177.492 194.089 173.91C194.089 170.328 191.181 167.424 187.595 167.424C184.008 167.424 181.101 170.328 181.101 173.91C181.101 177.492 184.008 180.396 187.595 180.396Z" fill="white"/>
<path d="M284.141 41.4827H199.397C195.1 41.4827 191.617 44.9614 191.617 49.2527V71.0652C191.617 75.3565 195.1 78.8352 199.397 78.8352H284.141C288.438 78.8352 291.921 75.3565 291.921 71.0652V49.2527C291.921 44.9614 288.438 41.4827 284.141 41.4827Z" fill="white" stroke="#E1E4E5" stroke-width="4"/>
<path d="M279.993 52.6206H222.384C221.115 52.6206 220.087 53.6478 220.087 54.9149C220.087 56.182 221.115 57.2092 222.384 57.2092H279.993C281.261 57.2092 282.29 56.182 282.29 54.9149C282.29 53.6478 281.261 52.6206 279.993 52.6206Z" fill="#E1E4E5"/>
<path d="M258.08 62.8569H222.384C221.115 62.8569 220.087 63.8841 220.087 65.1512C220.087 66.4184 221.115 67.4456 222.384 67.4456H258.08C259.349 67.4456 260.378 66.4184 260.378 65.1512C260.378 63.8841 259.349 62.8569 258.08 62.8569Z" fill="#E1E4E5"/>
<path fill-rule="evenodd" clip-rule="evenodd" d="M206.922 70.0101C201.514 70.0101 197.129 65.5687 197.129 60.0913C197.129 54.6138 201.514 50.1729 206.922 50.1729C212.331 50.1729 216.716 54.6138 216.716 60.0913C216.716 65.5687 212.331 70.0101 206.922 70.0101Z" fill="url(#paint5_linear_509_1154)"/>
<path d="M210.371 58.4385L206.234 62.8467L203.75 60.2023" stroke="white" stroke-width="3.568" stroke-linecap="round" stroke-linejoin="round"/>
<path d="M191.768 102.194C191.031 101.923 190.406 101.557 189.975 101.266C189.892 101.211 189.822 101.138 189.77 101.053C189.718 100.969 189.684 100.874 189.671 100.776C189.658 100.677 189.667 100.577 189.695 100.482C189.724 100.387 189.773 100.299 189.838 100.224C189.951 100.094 190.107 100.01 190.278 99.9874C190.448 99.9649 190.621 100.006 190.764 100.102C191.121 100.342 191.645 100.651 192.255 100.875L192.323 100.9C193.777 101.414 195.026 101.202 196.037 100.27C196.598 99.7519 197.09 99.2801 197.525 98.864C199.447 97.0229 200.506 96.0089 202.529 95.7443C204.592 95.4745 205.947 97.0078 207.142 98.3611C208 99.3319 208.811 100.249 209.641 100.209L209.823 100.2L209.932 100.256C210.073 100.291 211.471 100.563 213.477 98.0326C214.734 96.4462 215.923 95.5928 217.113 95.4244C217.907 95.3118 218.582 95.5116 219.163 95.8073C219.252 95.8518 219.33 95.9145 219.392 95.9913C219.455 96.0681 219.5 96.1572 219.526 96.2528C219.551 96.3484 219.556 96.4483 219.54 96.546C219.524 96.6436 219.487 96.7367 219.433 96.8192C219.338 96.9628 219.193 97.0662 219.026 97.1095C218.859 97.1527 218.682 97.1328 218.529 97.0535C217.67 96.6042 216.494 96.4924 214.581 98.905C212.139 101.987 210.175 101.777 209.576 101.617C208.139 101.613 207.097 100.433 206.087 99.2909C205.031 98.0956 204.033 96.9659 202.713 97.139C201.148 97.3436 200.319 98.1379 198.501 99.8788C198.003 100.358 197.5 100.833 196.993 101.302C195.578 102.609 193.786 102.923 191.811 102.21C191.796 102.204 191.782 102.199 191.768 102.194Z" fill="#E1E4E5"/>
<path d="M220.138 97.8798C219.4 97.6083 218.775 97.2422 218.344 96.9513C218.262 96.8957 218.192 96.8232 218.14 96.7387C218.088 96.6542 218.054 96.5595 218.041 96.461C218.028 96.3625 218.036 96.2623 218.065 96.1672C218.094 96.0721 218.142 95.9842 218.208 95.9092C218.32 95.7794 218.477 95.6953 218.647 95.6727C218.818 95.6501 218.991 95.6907 219.134 95.7866C219.491 96.0271 220.014 96.3362 220.625 96.5606L220.693 96.5857C222.147 97.0998 223.396 96.8878 224.406 95.9554C224.967 95.4374 225.46 94.9656 225.895 94.5495C227.817 92.7084 228.876 91.6945 230.898 91.4298C232.961 91.1601 234.316 92.6933 235.512 94.0466C236.37 95.0174 237.181 95.9343 238.011 95.8946L238.192 95.8859L238.302 95.9412C238.443 95.977 239.84 96.249 241.846 93.7181C243.103 92.1317 244.293 91.2783 245.483 91.1095C246.276 90.9973 246.952 91.1972 247.533 91.4929C247.622 91.5374 247.7 91.6001 247.762 91.6768C247.825 91.7536 247.87 91.8428 247.895 91.9384C247.921 92.034 247.926 92.1339 247.91 92.2315C247.894 92.3291 247.857 92.4222 247.802 92.5047C247.707 92.6483 247.563 92.7517 247.396 92.795C247.229 92.8383 247.052 92.8183 246.899 92.7391C246.04 92.2897 244.863 92.1779 242.951 94.5905C240.509 97.6722 238.544 97.4628 237.946 97.3022C236.509 97.2984 235.466 96.1186 234.457 94.9764C233.4 93.7807 232.402 92.6515 231.082 92.8241C229.518 93.0287 228.688 93.8234 226.87 95.5643C226.372 96.0436 225.87 96.5182 225.363 96.988C223.947 98.2946 222.156 98.6085 220.181 97.8958C220.166 97.8897 220.152 97.885 220.138 97.8798Z" fill="#E1E4E5"/>
<path d="M61.5463 121.461L56.6885 126.308L54.3286 123.958M72.0713 119.142H86.428M72.1833 126.255H95.9252M61.5463 138.059L56.6885 142.906L54.3286 140.556M72.0713 135.74H86.428M72.1833 142.853H95.9252M95.9252 159.452H72.0713M95.9252 152.338H72.1833" stroke="#E1E4E5" stroke-width="5.5" stroke-linecap="round" stroke-linejoin="round"/>
<path d="M57.9371 161.823C60.5598 161.823 62.6859 159.7 62.6859 157.081C62.6859 154.461 60.5598 152.338 57.9371 152.338C55.3148 152.338 53.1887 154.461 53.1887 157.081C53.1887 159.7 55.3148 161.823 57.9371 161.823Z" stroke="#E1E4E5" stroke-width="5.5" stroke-linecap="round" stroke-linejoin="round"/>
<path d="M123.04 121.461L118.182 126.308L115.822 123.958M133.564 119.142H147.922M133.676 126.255H157.419M123.04 138.059L118.182 142.906L115.822 140.556M133.564 135.74H147.922M133.676 142.853H157.419M157.418 159.452H133.564M157.419 152.338H133.676" stroke="#E1E4E5" stroke-width="5.5" stroke-linecap="round" stroke-linejoin="round"/>
<path d="M119.431 161.823C122.053 161.823 124.179 159.7 124.179 157.081C124.179 154.461 122.053 152.338 119.431 152.338C116.808 152.338 114.682 154.461 114.682 157.081C114.682 159.7 116.808 161.823 119.431 161.823Z" stroke="#E1E4E5" stroke-width="5.5" stroke-linecap="round" stroke-linejoin="round"/>
<path d="M247.996 93.3743C249.443 93.6399 250.831 92.6844 251.097 91.2401C251.363 89.7957 250.406 88.4095 248.96 88.1439C247.513 87.8782 246.125 88.8337 245.859 90.278C245.593 91.7224 246.55 93.1086 247.996 93.3743Z" fill="#E1E4E5"/>
<path fill-rule="evenodd" clip-rule="evenodd" d="M184.618 82.7677H183.679C183.571 82.7676 183.467 82.7245 183.39 82.6479C183.313 82.5712 183.27 82.4673 183.27 82.359V81.4218C183.27 81.1952 183.455 81.013 183.679 81.013H184.618C184.726 81.0134 184.83 81.0565 184.907 81.1331C184.983 81.2097 185.027 81.3135 185.027 81.4218V82.359C185.027 82.4127 185.017 82.4659 184.996 82.5156C184.976 82.5653 184.946 82.6104 184.907 82.6484C184.869 82.6864 184.824 82.7165 184.774 82.737C184.725 82.7575 184.671 82.7679 184.618 82.7677ZM181.365 82.7677H180.426C180.318 82.7674 180.214 82.7242 180.137 82.6476C180.061 82.571 180.017 82.4673 180.017 82.359V81.4218C180.017 81.1952 180.202 81.013 180.426 81.013H181.365C181.473 81.0134 181.577 81.0565 181.654 81.1331C181.73 81.2097 181.774 81.3135 181.774 81.4218V82.359C181.774 82.4673 181.73 82.571 181.654 82.6476C181.577 82.7242 181.473 82.7674 181.365 82.7677ZM178.11 82.7677H177.172C177.063 82.7674 176.959 82.7242 176.883 82.6477C176.806 82.5711 176.762 82.4673 176.762 82.359V81.4218C176.762 81.1952 176.947 81.013 177.172 81.013H178.11C178.335 81.013 178.519 81.1973 178.519 81.4218V82.359C178.519 82.4127 178.509 82.4659 178.488 82.5156C178.468 82.5652 178.438 82.6103 178.4 82.6483C178.361 82.6863 178.316 82.7164 178.267 82.7369C178.217 82.7574 178.163 82.7679 178.11 82.7677ZM174.857 82.7677H173.919C173.81 82.7674 173.706 82.7242 173.63 82.6477C173.553 82.5711 173.51 82.4673 173.509 82.359V81.4218C173.509 81.1952 173.694 81.013 173.919 81.013H174.857C175.084 81.013 175.268 81.1973 175.268 81.4218V82.359C175.267 82.4674 175.223 82.571 175.146 82.6475C175.069 82.724 174.965 82.7672 174.857 82.7677ZM171.604 82.7677H170.666C170.557 82.7677 170.452 82.7247 170.375 82.6481C170.298 82.5715 170.255 82.4676 170.254 82.359V81.4218C170.254 81.1952 170.439 81.013 170.666 81.013H171.604C171.712 81.0134 171.816 81.0565 171.893 81.1331C171.97 81.2097 172.013 81.3135 172.013 81.4218V82.359C172.013 82.4673 171.97 82.571 171.893 82.6476C171.816 82.7242 171.712 82.7674 171.604 82.7677ZM181.245 79.2251H180.308C180.199 79.2247 180.095 79.1816 180.018 79.105C179.942 79.0284 179.898 78.9246 179.898 78.8163V77.8774C179.898 77.6525 180.082 77.4682 180.308 77.4682H181.245C181.472 77.4682 181.655 77.6525 181.655 77.8774V78.8141C181.655 78.868 181.645 78.9214 181.625 78.9713C181.604 79.0212 181.574 79.0665 181.536 79.1047C181.498 79.1429 181.453 79.1732 181.403 79.1939C181.353 79.2145 181.299 79.2251 181.245 79.2251ZM177.993 79.2251H177.054C176.946 79.2247 176.842 79.1815 176.765 79.1049C176.688 79.0284 176.645 78.9246 176.645 78.8163V77.8774C176.645 77.6525 176.829 77.4682 177.054 77.4682H177.993C178.218 77.4682 178.402 77.6525 178.402 77.8774V78.8141C178.403 78.868 178.392 78.9214 178.372 78.9713C178.351 79.0212 178.321 79.0665 178.283 79.1047C178.245 79.1429 178.2 79.1732 178.15 79.1939C178.1 79.2145 178.047 79.2251 177.993 79.2251ZM174.74 79.2251H173.801C173.693 79.2251 173.588 79.1821 173.511 79.1055C173.434 79.0289 173.39 78.9249 173.39 78.8163V77.8774C173.39 77.6525 173.574 77.4682 173.801 77.4682H174.74C174.964 77.4682 175.149 77.6525 175.149 77.8774V78.8141C175.149 78.9227 175.106 79.0269 175.029 79.1039C174.953 79.1809 174.848 79.2245 174.74 79.2251ZM178.11 86.5737H177.172C177.063 86.5734 176.959 86.5302 176.882 86.4535C176.806 86.3768 176.762 86.273 176.762 86.1645V85.2278C176.762 85.0012 176.947 84.8186 177.172 84.8186H178.11C178.335 84.8186 178.519 85.0029 178.519 85.2278V86.1645C178.52 86.2183 178.509 86.2716 178.488 86.3213C178.468 86.371 178.438 86.4161 178.4 86.4541C178.362 86.4922 178.316 86.5223 178.267 86.5428C178.217 86.5634 178.164 86.5739 178.11 86.5737ZM174.857 86.5737H173.919C173.81 86.5734 173.706 86.5302 173.629 86.4535C173.553 86.3768 173.509 86.273 173.509 86.1645V85.2278C173.509 85.0012 173.694 84.8186 173.919 84.8186H174.857C175.084 84.8186 175.268 85.0029 175.268 85.2278V86.1645C175.267 86.273 175.223 86.3768 175.147 86.4534C175.07 86.5299 174.965 86.5732 174.857 86.5737ZM168.22 68.2102H167.281C167.173 68.2101 167.069 68.167 166.992 68.0904C166.915 68.0137 166.872 67.9098 166.872 67.8014V66.8643C166.872 66.6377 167.056 66.4555 167.281 66.4555H168.22C168.328 66.4558 168.432 66.499 168.509 66.5756C168.585 66.6522 168.629 66.756 168.629 66.8643V67.8014C168.629 67.8552 168.619 67.9084 168.598 67.9581C168.578 68.0077 168.547 68.0529 168.509 68.0909C168.471 68.1289 168.426 68.159 168.376 68.1794C168.327 68.1999 168.273 68.2104 168.22 68.2102ZM164.967 68.2102H164.028C163.92 68.2098 163.816 68.1666 163.739 68.09C163.662 68.0135 163.619 67.9097 163.619 67.8014V66.8643C163.619 66.6377 163.804 66.4555 164.028 66.4555H164.967C165.075 66.4558 165.179 66.499 165.256 66.5756C165.332 66.6522 165.376 66.756 165.376 66.8643V67.8014C165.376 67.9097 165.332 68.0135 165.256 68.0901C165.179 68.1667 165.075 68.2099 164.967 68.2102ZM161.712 68.2102H160.773C160.665 68.2099 160.561 68.1667 160.484 68.0901C160.407 68.0135 160.364 67.9097 160.364 67.8014V66.8643C160.364 66.6377 160.548 66.4555 160.773 66.4555H161.712C161.937 66.4555 162.121 66.6398 162.121 66.8643V67.8014C162.121 67.8552 162.111 67.9084 162.09 67.958C162.07 68.0077 162.04 68.0528 162.001 68.0908C161.963 68.1287 161.918 68.1588 161.868 68.1793C161.819 68.1998 161.765 68.2103 161.712 68.2102ZM158.459 68.2102H157.52C157.412 68.2099 157.308 68.1667 157.231 68.0901C157.155 68.0135 157.111 67.9097 157.111 67.8014V66.8643C157.111 66.6377 157.296 66.4555 157.52 66.4555H158.459C158.686 66.4555 158.87 66.6398 158.87 66.8643V67.8014C158.869 67.9098 158.825 68.0134 158.748 68.0899C158.671 68.1663 158.567 68.2095 158.459 68.2102ZM155.206 68.2102H154.267C154.159 68.2102 154.054 68.1672 153.977 68.0906C153.9 68.014 153.857 67.91 153.856 67.8014V66.8643C153.856 66.6377 154.041 66.4555 154.267 66.4555H155.206C155.314 66.4558 155.418 66.499 155.495 66.5756C155.572 66.6522 155.615 66.756 155.615 66.8643V67.8014C155.615 67.9097 155.572 68.0135 155.495 68.0901C155.418 68.1667 155.314 68.2099 155.206 68.2102ZM164.847 64.6675H163.909C163.801 64.6672 163.697 64.624 163.62 64.5474C163.543 64.4708 163.5 64.3671 163.5 64.2587V63.3199C163.5 63.095 163.684 62.9106 163.909 62.9106H164.847C165.074 62.9106 165.257 63.095 165.257 63.3199V64.2566C165.257 64.3105 165.247 64.3639 165.226 64.4138C165.206 64.4636 165.176 64.509 165.138 64.5472C165.1 64.5854 165.054 64.6157 165.005 64.6363C164.955 64.657 164.901 64.6676 164.847 64.6675ZM161.594 64.6675H160.656C160.548 64.6672 160.444 64.624 160.367 64.5474C160.29 64.4708 160.247 64.3671 160.247 64.2587V63.3199C160.247 63.095 160.431 62.9106 160.656 62.9106H161.594C161.819 62.9106 162.004 63.095 162.004 63.3199V64.2566C162.004 64.3105 161.994 64.3639 161.973 64.4138C161.953 64.4636 161.923 64.509 161.885 64.5472C161.847 64.5854 161.802 64.6157 161.752 64.6363C161.702 64.657 161.648 64.6676 161.594 64.6675ZM158.342 64.6675H157.403C157.294 64.6675 157.19 64.6245 157.113 64.5479C157.036 64.4713 156.992 64.3674 156.992 64.2587V63.3199C156.992 63.095 157.176 62.9106 157.403 62.9106H158.342C158.566 62.9106 158.751 63.095 158.751 63.3199V64.2566C158.751 64.3652 158.708 64.4694 158.631 64.5464C158.554 64.6234 158.45 64.667 158.342 64.6675ZM161.712 72.0162H160.773C160.665 72.0157 160.561 71.9723 160.484 71.8957C160.408 71.8191 160.364 71.7153 160.364 71.607V70.6699C160.364 70.4437 160.548 70.2611 160.773 70.2611H161.712C161.937 70.2611 162.121 70.4454 162.121 70.6699V71.607C162.121 71.6608 162.111 71.714 162.09 71.7637C162.07 71.8133 162.04 71.8585 162.001 71.8965C161.963 71.9345 161.918 71.9646 161.868 71.9852C161.819 72.0057 161.765 72.0163 161.712 72.0162ZM158.459 72.0162H157.52C157.412 72.0157 157.308 71.9723 157.231 71.8957C157.155 71.8191 157.111 71.7153 157.111 71.607V70.6699C157.111 70.4437 157.296 70.2611 157.52 70.2611H158.459C158.686 70.2611 158.87 70.4454 158.87 70.6699V71.607C158.869 71.7154 158.825 71.819 158.748 71.8955C158.671 71.972 158.567 72.0153 158.459 72.0162Z" fill="#E1E4E5"/>
<path d="M131.139 91.6291C132.681 97.3755 138.595 100.786 144.349 99.2459C150.102 97.7062 153.517 91.7996 151.975 86.0532C150.434 80.3068 144.519 76.8966 138.766 78.4364C133.012 79.9761 129.597 85.8827 131.139 91.6291Z" fill="url(#paint6_linear_509_1154)"/>
<path d="M134.116 90.8326C135.217 94.9371 139.441 97.3728 143.551 96.273C147.661 95.1732 150.1 90.9543 148.998 86.8498C147.897 82.7453 143.673 80.3095 139.563 81.4093C135.453 82.5091 133.014 86.728 134.116 90.8326Z" fill="white"/>
<path d="M144.349 99.2462C142.636 99.7046 140.836 99.7341 139.108 99.3318C137.381 98.9295 135.779 98.108 134.446 96.9401C133.112 95.7721 132.088 94.2937 131.463 92.6358C130.838 90.9779 130.632 89.1918 130.864 87.4355C131.095 85.6792 131.757 84.0071 132.79 82.5672C133.823 81.1273 135.196 79.9641 136.787 79.1805C138.378 78.397 140.137 78.0174 141.91 78.0753C143.683 78.1332 145.414 78.6269 146.95 79.5126L145.332 82.3115C144.257 81.6911 143.045 81.3453 141.804 81.3047C140.563 81.2641 139.332 81.53 138.218 82.0788C137.104 82.627 136.143 83.4412 135.42 84.4491C134.696 85.457 134.233 86.6275 134.071 87.857C133.909 89.0865 134.053 90.3369 134.491 91.4975C134.928 92.658 135.645 93.6929 136.579 94.5104C137.513 95.3277 138.634 95.9026 139.843 96.1842C141.052 96.4658 142.312 96.4454 143.511 96.1248L144.349 99.2462Z" fill="url(#paint7_linear_509_1154)"/>
<circle cx="57.5" cy="6.5" r="3.5" fill="url(#paint8_linear_509_1154)"/>
<circle cx="20" cy="159" r="2" fill="url(#paint9_linear_509_1154)"/>
<circle cx="66.5" cy="21.5" r="3.5" fill="#F6F6F6"/>
<circle cx="1.5" cy="129.5" r="1.5" fill="#F6F6F6"/>
<circle cx="292.5" cy="140.5" r="7.5" fill="#F6F6F6"/>
<circle cx="242.5" cy="5.5" r="5.5" fill="#F6F6F6"/>
<circle cx="257" cy="15" r="3" fill="#F6F6F6"/>
<circle cx="26.5" cy="209.5" r="4.5" fill="#F6F6F6"/>
<circle cx="7" cy="29" r="2" fill="url(#paint10_linear_509_1154)"/>
<circle cx="298" cy="119" r="2" fill="url(#paint11_linear_509_1154)"/>
<circle cx="49.5" cy="192.5" r="9.5" fill="url(#paint12_linear_509_1154)"/>
<defs>
<linearGradient id="paint0_linear_509_1154" x1="201.971" y1="308.839" x2="93.7035" y2="-180.256" gradientUnits="userSpaceOnUse">
<stop stop-color="white"/>
<stop offset="1" stop-color="#EEEEEE"/>
</linearGradient>
<linearGradient id="paint1_linear_509_1154" x1="217.395" y1="131.035" x2="167.215" y2="-94.7428" gradientUnits="userSpaceOnUse">
<stop stop-color="white"/>
<stop offset="1" stop-color="#EEEEEE"/>
</linearGradient>
<linearGradient id="paint2_linear_509_1154" x1="97.0865" y1="249.172" x2="54.0553" y2="49.9182" gradientUnits="userSpaceOnUse">
<stop stop-color="white"/>
<stop offset="1" stop-color="#EEEEEE"/>
</linearGradient>
<linearGradient id="paint3_linear_509_1154" x1="33.6672" y1="67.3606" x2="104.211" y2="116.88" gradientUnits="userSpaceOnUse">
<stop stop-color="#F76B1C"/>
<stop offset="1" stop-color="#FAD961"/>
</linearGradient>
<linearGradient id="paint4_linear_509_1154" x1="183.357" y1="110.522" x2="270.768" y2="135.725" gradientUnits="userSpaceOnUse">
<stop stop-color="#F76B1C"/>
<stop offset="1" stop-color="#FAD961"/>
</linearGradient>
<linearGradient id="paint5_linear_509_1154" x1="199.388" y1="50.1728" x2="218.792" y2="55.3238" gradientUnits="userSpaceOnUse">
<stop stop-color="#F76B1C"/>
<stop offset="1" stop-color="#FAD961"/>
</linearGradient>
<linearGradient id="paint6_linear_509_1154" x1="119.576" y1="95.1993" x2="174.578" y2="79.7532" gradientUnits="userSpaceOnUse">
<stop stop-color="white"/>
<stop offset="1" stop-color="#EEEEEE"/>
</linearGradient>
<linearGradient id="paint7_linear_509_1154" x1="132.638" y1="78.0696" x2="149.122" y2="81.3978" gradientUnits="userSpaceOnUse">
<stop stop-color="#F76B1C"/>
<stop offset="1" stop-color="#FAD961"/>
</linearGradient>
<linearGradient id="paint8_linear_509_1154" x1="54.8073" y1="3" x2="61.7302" y2="4.86127" gradientUnits="userSpaceOnUse">
<stop stop-color="#F76B1C"/>
<stop offset="1" stop-color="#FAD961"/>
</linearGradient>
<linearGradient id="paint9_linear_509_1154" x1="18.4613" y1="157" x2="22.4173" y2="158.064" gradientUnits="userSpaceOnUse">
<stop stop-color="#F76B1C"/>
<stop offset="1" stop-color="#FAD961"/>
</linearGradient>
<linearGradient id="paint10_linear_509_1154" x1="5.46134" y1="27" x2="9.41727" y2="28.0636" gradientUnits="userSpaceOnUse">
<stop stop-color="#F76B1C"/>
<stop offset="1" stop-color="#FAD961"/>
</linearGradient>
<linearGradient id="paint11_linear_509_1154" x1="296.461" y1="117" x2="300.417" y2="118.064" gradientUnits="userSpaceOnUse">
<stop stop-color="#F76B1C"/>
<stop offset="1" stop-color="#FAD961"/>
</linearGradient>
<linearGradient id="paint12_linear_509_1154" x1="42.1914" y1="183" x2="60.982" y2="188.052" gradientUnits="userSpaceOnUse">
<stop stop-color="#F76B1C"/>
<stop offset="1" stop-color="#FAD961"/>
</linearGradient>
</defs>
</svg>
