<svg width="48" height="48" viewBox="0 0 48 48" fill="none" xmlns="http://www.w3.org/2000/svg">
<circle cx="24" cy="24" r="24" fill="url(#paint0_linear_216_3674)"/>
<path d="M25.1163 13.3953C22.3047 13.3983 19.609 14.5165 17.6209 16.5046C15.6328 18.4927 14.5146 21.1884 14.5116 24C14.5017 26.6201 15.4734 29.149 17.2354 31.0883L14.6791 33.6558C14.5978 33.7305 14.5421 33.8291 14.5201 33.9373C14.498 34.0455 14.5107 34.158 14.5563 34.2586C14.5982 34.3605 14.6693 34.4478 14.7606 34.5093C14.852 34.5709 14.9596 34.6041 15.0698 34.6046H25.1163C27.9288 34.6046 30.6262 33.4874 32.6149 31.4986C34.6037 29.5098 35.7209 26.8125 35.7209 24C35.7209 21.1874 34.6037 18.4901 32.6149 16.5014C30.6262 14.5126 27.9288 13.3953 25.1163 13.3953ZM20.6512 26.2325C20.4304 26.2325 20.2146 26.1671 20.031 26.0444C19.8474 25.9217 19.7044 25.7474 19.6199 25.5434C19.5354 25.3395 19.5133 25.115 19.5563 24.8985C19.5994 24.6819 19.7057 24.483 19.8618 24.3269C20.018 24.1708 20.2169 24.0645 20.4334 24.0214C20.6499 23.9784 20.8744 24.0005 21.0784 24.0849C21.2823 24.1694 21.4567 24.3125 21.5793 24.4961C21.702 24.6797 21.7674 24.8955 21.7674 25.1163C21.7674 25.4123 21.6498 25.6962 21.4405 25.9056C21.2312 26.1149 20.9472 26.2325 20.6512 26.2325ZM25.1163 26.2325C24.8955 26.2325 24.6797 26.1671 24.4961 26.0444C24.3125 25.9217 24.1695 25.7474 24.085 25.5434C24.0005 25.3395 23.9784 25.115 24.0215 24.8985C24.0645 24.6819 24.1708 24.483 24.327 24.3269C24.4831 24.1708 24.682 24.0645 24.8985 24.0214C25.115 23.9784 25.3395 24.0005 25.5435 24.0849C25.7474 24.1694 25.9218 24.3125 26.0444 24.4961C26.1671 24.6797 26.2326 24.8955 26.2326 25.1163C26.2326 25.4123 26.115 25.6962 25.9056 25.9056C25.6963 26.1149 25.4123 26.2325 25.1163 26.2325ZM29.5814 26.2325C29.3606 26.2325 29.1448 26.1671 28.9612 26.0444C28.7777 25.9217 28.6346 25.7474 28.5501 25.5434C28.4656 25.3395 28.4435 25.115 28.4866 24.8985C28.5296 24.6819 28.636 24.483 28.7921 24.3269C28.9482 24.1708 29.1471 24.0645 29.3636 24.0214C29.5802 23.9784 29.8046 24.0005 30.0086 24.0849C30.2126 24.1694 30.3869 24.3125 30.5096 24.4961C30.6322 24.6797 30.6977 24.8955 30.6977 25.1163C30.6977 25.4123 30.5801 25.6962 30.3707 25.9056C30.1614 26.1149 29.8775 26.2325 29.5814 26.2325Z" fill="white"/>
<defs>
<linearGradient id="paint0_linear_216_3674" x1="11.5414" y1="-24" x2="-62.1476" y2="98.9186" gradientUnits="userSpaceOnUse">
<stop stop-color="#F76B1C"/>
<stop offset="1" stop-color="#FAD961"/>
</linearGradient>
</defs>
</svg>
