<svg width="19" height="19" viewBox="0 0 19 19" fill="none" xmlns="http://www.w3.org/2000/svg">
<path d="M18.3878 7.76864L10.2495 0.281067C10.1514 0.192007 10.0346 0.121317 9.906 0.0730769C9.77737 0.0248365 9.63941 0 9.50006 0C9.36071 0 9.22275 0.0248365 9.09412 0.0730769C8.96549 0.121317 8.84875 0.192007 8.75062 0.281067L0.61234 7.77814C0.415414 7.95684 0.259887 8.16898 0.154789 8.40224C0.0496919 8.6355 -0.00288141 8.88523 0.000121773 9.13693V17.0996C-0.000696092 17.586 0.205714 18.0542 0.576847 18.4077C0.947979 18.7613 1.45558 18.9732 1.99511 19H17.005C17.5445 18.9732 18.0521 18.7613 18.4233 18.4077C18.7944 18.0542 19.0008 17.586 19 17.0996V9.13693C19.0008 8.62661 18.7813 8.13597 18.3878 7.76864ZM7.38896 17.0996V11.3984H11.6112V17.0996H7.38896ZM16.8889 17.0996H13.7223V10.4482C13.7223 10.1962 13.611 9.95451 13.4131 9.77631C13.2151 9.59811 12.9467 9.498 12.6667 9.498H6.33341C6.05346 9.498 5.78498 9.59811 5.58703 9.77631C5.38907 9.95451 5.27786 10.1962 5.27786 10.4482V17.0996H2.11122V9.09892L9.50006 2.30499L16.8889 9.13693V17.0996Z" fill="url(#paint0_linear_309_1572)"/>
<defs>
<linearGradient id="paint0_linear_309_1572" x1="-38.1195" y1="-12.3391" x2="7.92364" y2="-22.6334" gradientUnits="userSpaceOnUse">
<stop stop-color="#F76B1C"/>
<stop offset="1" stop-color="#FAD961"/>
</linearGradient>
</defs>
</svg>
