<svg width="466" height="476" viewBox="0 0 466 476" fill="none" xmlns="http://www.w3.org/2000/svg">
<path d="M150.562 51.7219C95.824 160.603 14.465 324.925 14.465 324.925C3.4705 346.033 0.4795 357.324 1.35262 376.397C7.15723 465.91 115.584 499.647 169.241 427.764C199.85 377.83 263.839 382.97 291.257 420.53C318.655 467.09 382.614 486.229 434.205 444.342C467.286 407.414 473.86 373.428 454.95 332.387L315.568 49.082C296.644 14.0406 259.673 0.663235 237.674 0.615211C200.677 -1.16888 167.134 18.7579 150.562 51.7219Z" fill="url(#paint0_linear_11_24)" stroke="white"/>
<path d="M227.862 164.494C278.413 169.608 316.049 128.157 310.641 83.1093L437.735 340.592C477.581 433.253 356.807 491.536 305.426 407.857C246.037 323.66 151.486 294.431 114.935 297.354C71.9048 297.9 55.6773 306.358 33.7674 328.702L65.6964 264.47L97.6254 200.238C120.982 157.282 153.804 149.821 227.862 164.494Z" fill="white" stroke="white"/>
<defs>
<linearGradient id="paint0_linear_11_24" x1="55.5593" y1="0.11683" x2="514.725" y2="123.988" gradientUnits="userSpaceOnUse">
<stop stop-color="#F76B1C"/>
<stop offset="1" stop-color="#FAD961"/>
</linearGradient>
</defs>
</svg>
